<svg width="66" height="79" viewBox="0 0 66 79" fill="none" xmlns="http://www.w3.org/2000/svg">
<path d="M7.58726 10.835C7.69626 11.261 7.91026 11.69 7.48926 12.08C7.19726 12.351 7.62626 12.802 7.30926 13.03C6.90326 13.322 6.89826 13.635 7.09126 14.033C7.29426 14.452 7.09526 14.609 6.68926 14.597C6.38526 14.589 6.08226 14.567 5.83026 14.811C5.95426 15.193 6.38526 15.037 6.56326 15.319C6.73126 15.585 6.95326 15.794 6.83526 16.148C6.63926 16.739 6.62926 17.339 6.71826 17.955C6.75026 18.176 6.71926 18.49 6.34226 18.168C6.09726 17.959 5.92026 18.229 5.71126 18.289C5.80526 18.591 6.07326 18.507 6.22426 18.643C6.41126 18.812 6.50426 18.985 6.30026 19.15C5.94126 19.44 5.96826 19.876 5.81726 20.244L5.85326 20.197C5.57826 20.226 5.24926 20.292 5.27826 20.61C5.30426 20.894 5.69226 20.676 5.87226 20.831C5.91226 20.865 6.00026 20.843 6.06526 20.846L6.02926 20.819C6.08526 21.312 6.69726 20.731 6.70426 21.132C6.71226 21.601 6.16326 21.543 5.90126 21.772C5.83026 21.834 5.75326 21.888 5.67926 21.945C5.72626 22.018 5.75626 22.113 5.79426 22.116C6.77426 22.2 7.16026 22.311 6.49926 23.39C6.62426 23.642 7.05926 23.457 7.11026 23.812C7.14226 24.039 6.97926 24.186 6.87126 24.354L6.89026 24.34C6.52026 24.407 6.56726 23.902 6.25626 23.864C6.33926 24.405 6.15426 25 6.67826 25.4L6.65226 25.379C6.74426 25.655 6.67226 25.915 6.61026 26.188C6.47926 26.759 6.54526 26.808 7.16826 26.698C7.30026 26.675 7.43226 26.65 7.63326 26.612C7.68326 27.033 7.54026 27.369 7.18226 27.418C6.73326 27.48 6.88526 27.819 6.80026 28.03C6.71426 28.243 6.85926 28.463 7.07626 28.508C7.33426 28.562 7.27726 28.304 7.31526 28.157C7.41426 27.779 7.74826 27.675 8.03726 27.704C8.27926 27.728 8.36126 28.035 8.34526 28.292C8.28626 29.284 8.86826 30.093 9.14826 30.984C9.29826 31.463 9.19326 31.713 8.82326 31.91C9.01126 32.181 9.18026 32.048 9.33926 32.026C9.53026 31.999 9.78726 32.116 9.76526 32.225C9.64026 32.835 10.4513 33.419 9.84426 34.029C9.44326 34.068 9.36726 33.313 8.83726 33.715C9.00326 34.129 9.38326 34.263 9.79726 34.367C9.61726 34.78 8.94926 34.743 9.07926 35.31C9.32326 35.456 9.46926 35.279 9.58626 35.122C9.93326 34.652 10.4483 34.806 10.8163 34.919C11.1873 35.033 11.2203 35.536 11.1243 35.904C10.9813 36.448 11.0783 36.79 11.6933 36.819C11.9683 36.832 12.0443 37.003 12.0693 37.216C12.1593 37.981 12.3163 38.662 13.0913 39.103C13.3633 39.258 13.6423 39.721 13.4833 40.185C13.4373 40.32 13.3813 40.483 13.4963 40.57C13.9993 40.951 13.8353 41.35 13.3913 41.823C13.9513 41.832 14.4453 41.609 14.6353 42.211C14.8413 42.862 14.0423 42.67 13.9603 43.064C13.9943 43.331 14.2223 43.352 14.4113 43.418C14.5503 43.466 14.7173 43.614 14.6423 43.689C13.9883 44.341 15.2123 44.523 14.9953 45.097C14.9623 45.184 15.4613 45.274 15.7263 45.329C15.9363 45.373 16.1503 45.457 16.0893 45.724C16.0253 46.003 15.6333 46.493 16.3873 46.083C16.4223 46.064 16.5523 46.124 16.5543 46.154C16.6043 46.846 17.4203 47.053 17.5243 47.787C17.5783 48.172 17.7363 48.74 18.2353 49.036C18.4203 49.145 18.4243 49.536 18.5483 49.778C18.6893 50.054 18.3003 50.788 19.1363 50.489C19.2353 51.029 19.6423 51.417 19.8333 51.906C19.9133 52.11 19.9923 52.283 20.1673 52.398C20.6413 52.711 20.6543 53.091 20.3843 53.55C20.2903 53.709 20.1413 53.941 20.4383 54.066C20.7533 54.199 20.8163 54.055 20.8243 53.742C20.8283 53.562 21.1093 53.645 21.1143 53.744C21.1433 54.274 21.5853 54.559 21.7933 54.978C21.6943 54.992 21.5883 54.987 21.4983 55.023C21.2243 55.131 20.9043 55.21 20.9223 55.602C20.9263 55.694 20.9993 55.811 21.1123 55.746C21.3963 55.582 21.8933 55.604 21.7643 55.049C21.7573 55.018 21.7643 54.983 21.7643 54.949C21.9073 55.009 22.1773 54.983 22.1013 55.224C22.0303 55.448 21.8793 55.645 21.9203 55.9C22.0813 56.083 22.3123 55.956 22.4973 56.04C22.6213 56.097 22.8213 56.12 22.7783 56.271C22.6793 56.617 22.7283 56.928 22.8553 57.248C22.8963 57.353 22.8313 57.446 22.7423 57.508C22.5903 57.613 22.2683 57.555 22.3063 57.834C22.3543 58.177 22.6803 58.044 22.8993 58.083C23.6773 58.222 24.0903 58.694 23.9983 59.487C23.9483 59.921 24.1073 60.089 24.4653 60.038C24.9383 59.972 25.1883 59.884 24.8343 60.514C24.7463 60.671 25.1383 61.185 25.1323 61.591C25.1323 61.607 25.1753 61.626 25.2003 61.64C25.9063 62.039 25.9063 62.039 25.9033 62.64L25.9343 62.615C25.4773 62.902 25.2213 62.148 24.6003 62.424C25.1663 62.781 25.6223 63.103 25.9683 63.552C26.0613 63.673 26.3523 63.642 26.5513 63.681L26.5183 63.663C26.6213 63.798 26.7423 64.06 26.8223 64.048C27.3173 63.974 27.2003 64.197 27.0183 64.422C26.7443 64.759 26.7543 64.864 27.2293 64.994C28.0273 65.213 28.3693 66.012 28.9233 66.547C29.1693 66.785 28.7233 66.965 28.9103 67.134C29.0513 67.262 29.3253 67.201 29.4113 67.443C29.4663 67.597 29.6293 67.742 29.5143 67.914C29.3923 68.098 29.2003 68.039 29.0553 67.947C28.5813 67.646 28.6353 68.106 28.6163 68.289C28.5633 68.805 29.0103 69.094 29.5033 68.852C29.7813 68.715 29.8753 68.761 30.0763 68.995C30.4823 69.467 30.7633 70.023 31.1573 70.49C31.4643 70.854 31.2443 71.565 31.9423 71.66C31.9763 71.665 32.0243 71.848 32.0023 71.932C31.9063 72.297 32.2163 72.573 32.1943 72.919C32.4423 73.064 32.9053 72.212 33.0273 73.12C33.0573 73.342 33.3783 73.115 33.5063 72.973C34.0353 72.385 34.5133 71.756 35.0643 71.184C35.5543 70.675 36.1503 70.24 36.3863 69.511C36.4553 69.297 36.6403 69.068 36.8363 68.957C37.6143 68.516 38.0343 67.729 38.2923 67.006C38.6373 66.037 39.3813 65.374 39.8023 64.487C39.9463 64.184 40.1583 63.901 40.2793 63.583C40.3963 63.273 40.5923 63.013 40.8683 62.893C41.3863 62.667 41.7623 62.431 41.5153 61.769C41.4383 61.562 41.6093 61.35 41.7833 61.251C42.2913 60.96 42.1493 60.108 42.8703 60.017C43.2973 58.208 44.8003 57.055 45.6233 55.488C46.0373 54.7 46.8823 54.196 47.0713 53.264C47.9923 53.004 47.9893 52.235 48.0433 51.497C48.0903 50.85 48.5303 50.362 48.8283 49.849C49.4423 48.792 49.7243 47.557 50.6173 46.64C50.9813 46.266 50.9023 45.619 51.3003 45.167C51.5933 44.835 51.7283 44.368 52.2113 44.206C52.2723 44.186 52.3593 44.122 52.3623 44.074C52.4143 43.315 53.0483 42.815 53.2253 42.133C53.3133 41.795 53.2603 41.487 53.7283 41.478C53.7763 41.477 53.8683 41.309 53.8593 41.228C53.7133 40.008 54.8393 39.212 54.9063 38.066C55.4913 37.531 55.5843 36.788 55.7503 36.076C55.7843 35.932 55.8793 35.839 55.9973 35.761C56.9383 35.141 57.4443 34.16 57.1673 33.071C56.9523 32.227 57.4193 31.703 57.7693 31.098C57.9303 30.819 58.4663 30.635 57.8843 30.245C57.7363 30.146 57.8113 29.924 57.8723 29.761C57.9763 29.482 58.5683 29.353 58.1373 28.897C58.1223 28.881 58.2693 28.819 58.3833 28.828C58.7883 28.857 58.7713 28.684 58.5243 28.454C58.0153 27.98 58.6923 27.964 58.7683 27.992C59.1063 28.116 59.2693 27.901 59.4723 27.748C59.4173 27.486 59.1903 27.47 59.0163 27.368C58.8533 27.272 58.7363 27.096 58.6163 26.973C58.8083 26.515 59.2533 27.047 59.4253 26.717C59.5143 26.547 59.4993 26.322 59.5293 26.134C59.4003 26.012 59.2583 26.047 59.1243 26.033C58.9653 26.017 58.7903 26.249 58.6673 26.054C58.5553 25.876 58.5723 25.576 58.7173 25.48C59.0543 25.257 58.9583 25.112 58.8453 24.776C58.6163 24.096 58.7753 23.975 59.8083 23.712C59.8993 23.181 59.0683 22.774 59.6873 22.212C59.3463 21.989 59.0583 22.42 58.8623 22.179C58.7253 22.011 58.6723 21.736 58.6683 21.507C58.6603 21.044 58.4643 20.539 58.8883 20.139C58.9333 20.097 58.9673 20.017 58.9663 19.956C58.9603 19.593 58.8903 19.282 59.2823 18.971C59.6623 18.67 59.9963 18.935 60.3313 18.848C60.3283 18.393 60.2363 18.069 59.6853 18.291C59.6233 18.316 59.5493 18.311 59.4823 18.327C58.4363 18.571 58.4093 18.546 58.4663 17.447C58.4833 17.116 58.2533 16.757 58.0803 16.67C57.4203 16.339 57.4753 15.504 56.8623 15.134C57.2833 15.222 57.6783 15.144 58.0603 15.202C58.2353 15.228 58.4093 15.494 58.5293 15.165C58.6263 14.898 58.6653 14.617 58.2943 14.498C58.2633 14.488 58.2313 14.437 58.2103 14.443C57.4893 14.637 57.0053 14.092 56.4113 13.87C56.7073 13.176 57.1843 13.869 57.6293 13.703C57.5303 13.223 56.9713 13.083 56.8503 12.731C56.7353 12.398 56.6423 11.956 56.8093 11.547C57.4633 11.578 58.0193 11.773 58.4823 12.218C58.5773 12.309 58.7163 12.389 58.8373 12.24C59.0033 12.035 58.8933 11.938 58.6843 11.895C58.4703 11.852 58.4933 11.757 58.6233 11.636C58.9043 11.376 58.7393 11.143 58.5523 10.864C58.2873 11.039 58.0303 11.226 57.7553 11.382C57.6193 11.459 57.4673 11.397 57.4543 11.228C57.4443 11.095 57.5093 10.961 57.6953 10.99C57.7783 10.618 57.9613 10.283 58.3193 9.77998C57.4023 10.383 57.4023 10.383 57.7043 10.992C57.4883 10.895 57.2793 10.772 57.0533 10.711C56.9363 10.679 56.6543 10.609 56.7503 10.91C56.8243 11.14 56.8233 11.238 56.5613 11.151C56.4493 11.114 56.2863 11.12 56.2913 10.914C56.3003 10.544 56.5803 10.218 56.4643 9.82998C56.6683 9.85798 56.7833 10.235 57.0423 10.008C57.2993 9.78199 57.0123 9.60998 56.9423 9.41598C56.9213 9.35698 56.9203 9.28998 56.9093 9.22698C57.6383 9.16698 57.8023 9.03698 57.9453 8.41598C58.0813 7.82598 57.5863 7.87799 57.2703 7.74299C57.2103 7.71799 57.1663 7.65898 57.1113 7.61898C56.5593 7.21598 56.5593 7.21598 56.3273 7.93798C56.5573 7.96898 56.5513 7.59598 56.6463 7.65498C56.8023 7.75098 56.9753 7.97598 56.9703 8.14098C56.9613 8.43598 56.8243 8.72799 56.7403 9.02099C56.2373 9.05599 56.3113 9.39798 56.3633 9.72898C56.0093 9.88498 55.7133 10.166 55.2063 10.225C55.5273 10.599 56.2083 10.769 55.8463 11.414C55.4713 11.376 55.1993 11.229 55.1743 10.801C55.1663 10.664 55.1323 10.529 55.1143 10.393C55.0863 10.173 55.0123 9.99798 54.7583 9.95698C54.4033 9.89898 54.5133 10.198 54.4453 10.357C54.1143 11.133 53.5823 11.212 52.8723 10.591C53.1763 10.264 53.5943 10.659 53.9323 10.447C53.9313 10.153 53.7913 9.91698 53.5343 9.95498C53.2123 10.003 52.9853 10.109 52.7893 9.70098C52.6833 9.47998 52.3493 9.36399 52.1393 9.74499C52.0443 9.91599 51.9033 10.11 51.6483 9.94299C51.4333 9.80199 51.2753 9.63498 51.3793 9.34698C51.4023 9.28298 51.4183 9.21498 51.4313 9.14698C51.4753 8.91898 51.5973 8.66899 51.2713 8.53799C50.9793 8.41999 50.9483 8.71798 50.8063 8.83398C50.7013 8.91998 50.6253 9.04198 50.4603 9.04098C50.1483 8.88298 50.2163 8.51198 50.0223 8.22398C49.7213 8.84098 49.1853 8.70798 48.6953 8.63398C48.5703 8.61498 48.4783 8.38699 48.3833 8.27099C48.0013 9.12299 47.2933 9.39699 45.8753 8.90399C45.7893 9.07699 45.7463 9.34799 45.6073 9.41299C44.8903 9.74599 44.7133 10.746 43.7673 10.823C43.4103 10.852 43.3893 11.083 43.6253 11.573C43.7043 11.737 43.6563 11.817 43.5433 11.893C43.1013 12.191 42.6063 12.409 42.5843 13.084C42.5683 13.574 41.8853 13.29 41.7263 13.683C42.2983 13.915 41.9703 14.257 41.8363 14.575C41.8233 14.607 41.7923 14.64 41.7963 14.669C41.8653 15.151 40.7933 14.403 41.2093 15.197C41.4363 15.631 40.8533 15.821 41.0123 16.231C41.0913 16.435 40.9373 16.775 40.7453 16.861C40.3883 17.021 40.2433 17.108 40.2833 17.595C40.3063 17.872 39.7303 18.271 39.3523 18.49C38.8943 18.755 38.8343 18.762 39.1793 19.056C39.2993 19.158 39.4763 19.194 39.6253 19.26C39.5523 19.73 39.1053 19.864 38.8513 20.164C38.8233 19.548 38.8233 19.548 38.2763 19.482C38.4783 19.728 38.9093 19.754 38.8503 20.162C39.2013 20.467 38.9643 20.669 38.6843 20.71C38.3273 20.761 38.2873 20.89 38.2393 21.227C38.2023 21.491 38.2433 21.87 37.9503 22.06C37.7313 22.202 37.8163 22.342 37.9093 22.484C38.2003 22.927 38.0573 23.18 37.5743 23.31C37.3473 23.371 37.2093 23.511 37.3213 23.765C37.6233 24.448 37.6083 25.249 37.0913 25.969C36.8203 26.346 36.9413 26.77 36.7303 27.117C36.5523 27.409 36.1833 27.628 36.3923 28.058C36.3603 28.069 36.3283 28.091 36.2973 28.089C36.2033 28.085 36.1733 28.033 36.2073 27.946C35.9793 27.946 35.7503 27.946 35.4873 27.946C35.7583 28.119 35.9833 27.998 36.2103 27.949C36.0793 28.122 36.0023 28.314 36.0933 28.524C36.2443 28.874 36.1543 29.27 36.0093 29.518C35.6883 30.07 35.4433 30.556 35.4883 31.254C35.5283 31.872 34.9873 32.446 35.0183 33.123C35.0293 33.364 34.7023 33.521 34.7333 33.618C35.0053 34.459 34.6043 34.766 33.7973 34.761C34.0623 35.155 34.4573 34.715 34.6703 35.029C34.6673 35.345 34.4713 35.452 34.2083 35.486C34.0453 35.507 33.8523 35.465 33.8013 35.7C33.7313 36.027 33.5053 36.037 33.2123 36.106C32.7853 36.208 32.2073 36.083 31.9743 36.656C31.9643 36.682 31.9223 36.698 31.8923 36.712C31.5643 36.869 31.4393 36.152 31.1293 36.5C30.9863 36.66 31.4683 36.946 31.1253 37.268C30.8163 37.557 30.5983 37.553 30.3663 37.265C30.1623 37.013 30.1793 37.201 30.0073 37.308C29.6663 37.521 29.4173 37.935 28.9463 37.928C28.5063 37.966 28.6123 37.144 28.0213 37.354C28.1343 37.904 28.5503 37.907 28.9523 37.932C28.7133 38.279 28.1793 38.417 28.2323 38.981C28.2393 39.054 28.0453 39.188 27.9253 39.22C27.7813 39.258 27.8053 39.17 27.7573 39.033C27.5463 38.435 27.8683 37.898 27.8013 37.338C27.7783 37.147 27.9573 36.9 27.7573 36.763C26.8573 36.147 27.1223 34.997 26.5673 34.225C26.4623 34.08 26.5183 34.022 26.9583 33.664L26.9253 33.682C27.6753 33.803 27.6753 33.803 27.4793 34.606C28.0243 34.536 27.8373 33.824 28.3503 33.675C27.6463 33.87 27.4593 33.09 26.9293 33.032L26.9623 33.058C26.9053 32.978 26.8563 32.837 26.7893 32.828C26.1283 32.736 26.1003 32.249 26.0873 31.747C26.1943 31.871 26.2813 32.065 26.4113 32.099C26.6003 32.149 26.7163 31.949 26.7123 31.782C26.7053 31.494 26.7093 31.26 27.0293 31.109C27.1423 31.056 27.0703 30.872 26.9013 30.827C26.5623 30.736 26.3513 30.871 26.4473 31.246C26.5463 31.634 26.1063 31.536 26.1063 31.775C25.9233 31.289 25.5263 30.8 26.2453 30.377C26.4583 30.252 26.3813 30.01 26.1333 29.917C25.9653 29.854 25.9163 29.764 26.0213 29.626C26.0993 29.523 26.2133 29.378 26.3553 29.499C26.6323 29.737 27.0423 29.584 27.3053 29.852C27.4053 29.954 27.5423 29.986 27.6733 29.887C27.8193 29.777 27.7133 29.628 27.7063 29.507C27.6953 29.337 27.5353 29.288 27.4073 29.364C27.0523 29.573 26.9563 29.424 26.8783 29.079C26.8223 28.83 26.7263 28.532 26.3103 28.784C26.1533 28.879 25.7403 28.201 25.8503 28.016C25.9823 27.795 26.3383 27.777 26.3593 27.907C26.5233 28.947 26.9763 28.087 27.4053 28.172C27.2503 27.762 26.9443 27.652 26.7883 27.421C26.4463 26.916 26.4173 26.732 26.9473 26.438C27.1143 26.345 27.2703 26.288 27.2023 26.088C27.1513 25.94 26.9913 25.958 26.8493 25.99C26.6863 26.026 26.4713 26.075 26.4593 25.834C26.4513 25.683 26.4813 25.472 26.6463 25.378C26.8183 25.28 27.0063 25.152 27.2113 25.332C27.5563 25.635 27.7353 26.042 27.9173 26.484C28.2473 26.407 28.2193 26.075 28.3643 25.898C27.7523 25.408 27.1883 24.767 26.3623 24.749C26.0603 24.742 25.5863 24.615 25.2883 25.06C25.5393 25.289 25.9023 25.4 26.0563 25.757C26.1453 25.962 26.1013 26.071 25.9873 26.204C25.7973 26.425 25.6713 26.234 25.6023 26.105C25.4553 25.826 25.3693 25.524 24.9863 25.895C24.9073 25.972 24.7483 25.801 24.7313 25.658C24.7123 25.503 24.6463 25.396 24.9633 25.414C25.2813 25.432 25.0953 25.176 24.9493 25.022C24.6603 24.716 24.4063 24.42 25.1483 24.415C25.3883 24.413 25.5873 24.192 25.6563 23.953C25.7453 23.646 25.4123 23.696 25.2743 23.584C25.1253 23.464 25.0093 23.327 25.1203 23.156C25.3793 22.754 25.0903 22.723 24.8173 22.649C24.7043 22.618 24.6283 22.411 24.4793 22.585C24.3443 22.743 24.3803 22.908 24.5003 23.047C24.5883 23.149 24.7133 23.218 24.8103 23.313C24.9593 23.461 24.9443 23.616 24.7893 23.751C24.6253 23.895 24.5333 23.824 24.3823 23.677C23.9163 23.222 23.9563 22.703 24.1003 22.148C24.3043 22.036 24.5183 21.94 24.7123 21.812C24.7793 21.768 24.8503 21.619 24.8233 21.564C24.7613 21.435 24.6233 21.409 24.4833 21.472C24.1773 21.612 23.9783 21.807 24.1193 22.177C23.3293 21.538 23.2483 21.137 23.7893 20.411C24.0583 20.05 24.3773 19.717 24.1623 19.216C24.3443 19.485 24.6193 19.566 24.9203 19.668C24.9853 19.345 24.9363 19.104 24.7753 18.872C24.5883 19.04 24.4263 19.225 24.1643 19.235C24.1323 19.408 24.0673 19.569 23.8553 19.528C23.6643 19.492 23.6313 19.292 23.5943 19.146C23.5483 18.968 23.7273 18.966 23.8443 18.936C23.9393 18.912 24.0363 18.898 24.1333 18.879C24.1423 18.586 24.5073 18.621 24.5833 18.389C24.6303 18.244 24.5963 18.116 24.4683 18.045C24.3143 17.961 24.2503 18.07 24.1783 18.197C24.0493 18.424 24.1373 18.654 24.1323 18.883C23.8093 18.718 23.9333 18.166 23.3823 18.136C22.8903 18.11 22.9533 17.689 23.1233 17.348C23.2873 17.017 23.5073 16.874 23.8473 17.177C23.9723 17.288 24.1293 17.498 24.2783 17.126C24.3823 16.865 24.7133 16.7 24.4773 16.339C24.3683 16.172 24.2733 16.169 24.1713 16.289C24.0233 16.462 23.8343 16.505 23.6293 16.547C23.2993 16.614 22.8863 16.831 22.7053 16.429C22.5553 16.097 23.1083 16.049 23.2053 15.739C23.2853 15.48 23.4683 15.647 23.6033 15.745C23.7843 15.877 23.8973 15.843 23.9793 15.623C24.3003 14.766 24.5583 14.689 25.4823 15.154C24.9303 15.488 24.6973 16.297 25.1803 16.59C25.5853 16.835 25.5403 16.912 25.3733 17.234C25.0133 17.929 25.0303 17.937 25.8593 18.192C26.0113 17.982 25.8033 17.807 25.8023 17.645C25.7993 17.312 25.6103 16.607 26.4333 17.043C26.5043 17.081 26.7993 16.896 26.8223 16.781C26.8663 16.566 26.6723 16.621 26.5023 16.586C26.1273 16.509 26.0493 16.253 26.3323 15.926C26.7183 15.478 26.6903 15.521 26.1513 15.345C25.8663 15.252 25.6153 14.959 25.6703 14.571C25.6893 14.437 25.7293 14.306 25.7633 14.156C26.0883 14.048 26.2173 14.594 26.5353 14.426C26.9333 14.215 26.4413 13.855 26.6593 13.573C27.0173 13.455 27.2333 13.903 27.7083 13.821C27.4273 14.218 27.6903 14.832 26.9443 14.854C26.7863 14.859 26.9123 15.084 27.0073 15.157C27.2503 15.345 27.4673 15.196 27.6613 15.055C27.9003 14.882 27.9223 14.472 28.3933 14.446C28.6073 14.788 28.6083 15.224 28.7033 15.625C28.5783 15.515 28.4643 15.394 28.3283 15.305C28.2543 15.256 28.1373 15.222 28.0563 15.314C27.9433 15.442 28.0363 15.553 28.1033 15.66C28.3373 16.032 28.5173 15.807 28.6983 15.604C28.6913 15.515 28.7343 15.476 28.8213 15.48C28.9713 15.616 29.1213 15.752 29.2713 15.888C29.3103 16.071 29.1673 16.308 29.4463 16.419C29.5333 16.454 29.6783 16.568 29.6693 16.587C29.2783 17.424 29.5833 17.507 30.3003 17.193C30.3933 17.152 30.4883 17.288 30.4883 17.385C30.4853 18.03 30.9073 18.52 31.1353 19.071C31.4303 19.785 31.3813 20.537 31.5383 21.26C31.7073 22.041 32.1343 22.757 32.0183 23.63C32.4313 23.522 32.5813 23.223 32.6323 23.017C32.7693 22.463 33.1973 22.052 33.3553 21.574C33.5893 20.864 34.0943 20.296 34.2523 19.562C34.3053 19.314 34.3123 18.955 34.8183 18.986C34.9533 18.994 35.2873 18.325 35.2563 17.992C35.1753 17.114 35.6513 16.495 36.1973 16.034C36.8483 15.484 37.2113 14.754 37.7103 14.119C38.7913 12.745 39.8673 11.368 41.0633 10.092C41.9513 9.14399 42.8613 8.21098 43.8213 7.33898C44.4593 6.75998 45.0103 6.00399 45.9783 5.90199C46.3943 5.18299 47.1493 5.03299 47.8483 4.79199C48.2543 3.83099 49.1163 3.99798 49.9123 3.89098C50.4043 3.82498 50.9383 3.86098 51.2983 3.99998C51.7563 4.17798 52.0813 4.23698 52.5243 4.05898C52.8813 3.91598 53.0693 4.23699 53.2593 4.48399C53.3893 4.65299 53.5803 4.77399 53.7813 4.78399C54.1423 4.80299 53.9213 4.48998 54.0003 4.35598C54.0993 4.18698 54.3323 4.08698 54.5413 4.11698C55.0803 4.19598 55.6143 4.30799 56.1493 4.40899C56.2163 4.42199 56.2783 4.46698 56.3453 4.47298C56.7653 4.51098 56.3143 5.19299 56.7813 5.10699C57.0553 5.05599 57.2963 5.02899 57.5743 5.06599C58.2723 5.15799 58.4143 5.85498 58.8733 6.20698C59.1643 6.42998 60.0853 7.09798 60.4483 7.11198C60.7443 7.12398 60.9073 7.39298 61.2063 7.38598C61.4523 7.37998 61.5853 7.65499 61.5463 7.82499C61.4923 8.06499 61.3553 8.32898 61.0733 8.41598C60.9523 8.45298 60.7563 8.47698 60.7513 8.28698C60.7323 7.55998 60.2793 7.70899 59.8193 7.76899C59.5913 7.79899 59.3483 7.70898 58.9133 7.64298C59.5693 8.21798 59.3083 9.07099 59.9933 9.55099C60.2703 9.74399 60.0073 10.182 59.6013 10.249C59.2143 10.313 59.0353 10.51 59.2253 10.89C59.3523 11.144 59.1873 11.643 59.7483 11.563L59.8153 11.638C59.8293 12.106 59.9343 12.474 60.5383 12.316C60.6693 12.282 60.8673 12.199 60.9273 12.255C61.2893 12.592 61.6663 12.499 61.8673 12.17C62.0343 11.897 62.0163 11.489 61.8813 11.156C61.8353 11.042 61.6353 10.922 61.7353 10.816C62.2283 10.294 61.6043 9.93999 61.6133 9.50599C61.0843 9.49399 61.3563 10.251 60.8453 10.214C60.6843 10.055 60.8353 9.90098 60.8513 9.74598C60.9543 8.75098 60.9523 8.75599 61.7613 9.25399C61.9343 9.36099 62.1423 9.40999 62.3163 9.51399C62.5553 9.65599 62.7113 9.87798 62.3843 10.052C61.9603 10.278 62.3743 10.516 62.3283 10.745C62.2643 11.067 62.3523 11.285 62.7613 11.138C62.8783 11.096 62.9433 11.203 62.9433 11.316C62.9433 11.38 62.8863 11.445 62.8913 11.507C62.9163 11.801 62.9543 12.093 62.9863 12.385C62.7783 12.303 62.5843 12.273 62.5163 12.556C62.4943 12.648 62.4933 12.794 62.6063 12.795C62.8023 12.796 62.8263 12.576 62.9323 12.457C62.9533 12.434 62.9563 12.394 62.9673 12.363C63.2713 12.596 63.5543 12.28 63.8463 12.328C64.0543 12.362 64.2623 12.475 64.2323 12.718C64.2023 12.963 63.9963 12.923 63.8383 12.839C63.7063 12.769 63.5393 12.713 63.4623 12.818C62.9813 13.47 62.3213 13.261 61.6163 13.152C61.6133 13.56 61.7033 13.874 61.4153 14.258C60.9963 14.819 60.8063 15.601 60.9383 16.371C60.7363 16.186 60.5243 16.012 60.2403 16.188C59.9873 16.345 59.7853 16.208 59.6053 16.077C59.3913 15.92 59.5563 15.809 59.6993 15.716C60.0033 15.681 60.1733 15.496 60.2353 15.21C60.3383 14.73 59.9583 14.283 60.1323 13.796C60.0323 13.8 59.9333 13.803 59.8333 13.807C59.5243 13.103 59.4483 13.153 58.8593 12.78C58.4813 12.541 57.8843 12.58 57.7223 12.005C57.7003 11.927 57.5473 11.937 57.3623 12.081C57.4923 12.77 58.4393 13.015 58.3593 13.808C58.7233 13.731 58.6063 13.155 59.0263 13.357C59.3503 13.513 59.1723 13.844 59.1983 14.098C59.2073 14.183 59.0893 14.274 59.0643 14.371C58.9333 14.883 59.1713 15.074 59.6613 15.034C59.5933 15.279 59.6083 15.516 59.7253 15.744C59.4173 15.504 59.0663 15.431 58.8473 15.787C58.7263 15.984 58.6503 16.407 58.8423 16.547C59.2493 16.846 59.7403 16.942 60.1283 16.48C60.4103 16.754 60.0843 17.305 60.6563 17.307C60.7433 17.589 60.6203 18.06 61.1943 17.904C61.6213 18.416 61.6213 18.416 62.2993 17.834C62.0803 17.728 61.9083 17.577 61.6583 17.598C61.7723 17.49 61.7593 17.347 61.7013 17.239C61.5383 16.934 61.4703 17.272 61.3793 17.316C61.1213 17.439 60.8743 17.382 60.6203 17.341C60.7083 17.007 60.7133 16.647 60.9243 16.35C61.0453 16.177 61.2053 16.066 61.4053 15.989C61.5503 15.933 61.6653 15.866 61.5953 15.617C61.4533 15.11 61.4663 14.672 62.0893 14.367C62.3593 14.235 62.6203 13.889 62.8383 13.569C63.4483 14.118 63.1943 14.761 63.2493 15.335C62.8283 15.31 62.8133 14.724 62.2863 14.688C62.2803 15.091 62.3033 15.493 62.1313 15.856C62.1083 15.906 62.2003 16.036 62.2683 16.097C62.3533 16.173 62.4533 16.132 62.5293 16.052C62.7623 15.806 62.9953 15.56 63.2283 15.314C63.6243 15.158 63.4943 14.823 63.5153 14.525C63.5483 14.051 63.8903 13.795 64.3403 13.866C64.7253 13.927 65.0503 14.372 65.0213 14.757C65.0053 14.974 64.9013 15.07 64.7063 15.071C64.4073 15.073 64.3153 15.334 64.1673 15.505C64.0333 15.659 64.1613 15.828 64.2653 15.964C64.3583 16.085 64.4763 16.141 64.6093 16.013C64.8043 15.827 65.0493 15.734 65.2563 15.918C65.5283 16.159 65.5993 16.53 65.5523 16.868C65.5113 17.162 65.2693 17.434 65.2543 17.722C65.2443 17.919 65.6123 18.08 65.1553 18.289C64.9113 18.401 65.2273 18.632 65.3943 18.703C65.9533 18.942 66.0003 19.206 65.5003 19.574C65.2683 19.744 65.3133 20.069 65.1813 20.289C65.0823 20.454 64.8413 19.937 64.7263 20.296C64.6603 20.501 64.8633 20.668 65.0343 20.795C65.1783 20.902 65.1283 21.025 65.0803 21.16C64.9923 21.403 65.0893 21.49 65.3193 21.388C65.6823 21.227 65.6963 21.571 65.5733 21.641C65.0663 21.928 65.2153 22.269 65.4803 22.629C65.1583 22.706 65.0453 22.315 64.7733 22.473C64.6223 22.561 64.4453 22.641 64.4523 22.837C64.4593 23.007 64.5593 23.259 64.7173 23.228C65.3643 23.103 65.3623 23.492 65.2083 23.872C65.0143 24.349 64.9043 24.798 65.0093 25.317C65.0513 25.525 64.9503 25.781 64.8163 25.999C64.6033 26.347 64.4233 26.713 64.5423 27.153C64.6133 27.416 64.5173 27.708 64.2713 27.751C63.5193 27.881 63.5623 28.602 63.2763 29.053C63.1093 29.317 63.0403 29.729 63.3683 30.093C63.6543 30.411 63.4773 30.976 63.1373 31.235C63.0053 31.335 62.9063 31.288 62.7683 31.256C62.2083 31.125 62.0033 31.318 62.2333 31.814C62.4713 32.328 62.6013 32.76 62.0663 33.155C61.7483 33.389 62.3273 33.77 61.8733 34.104C61.6063 34.3 61.6703 34.919 61.2523 35.182C61.1983 35.216 61.1783 35.376 61.2043 35.457C61.4433 36.197 61.0253 36.458 60.4063 36.599C60.2433 36.636 60.0953 36.738 59.9473 36.807C59.9793 36.983 60.0903 37.074 60.2143 37.129C60.6933 37.341 60.6183 37.709 60.3353 37.943C59.9493 38.261 59.6693 38.54 59.7043 39.098C59.7183 39.322 59.4763 39.593 59.2963 39.793C58.8103 40.334 58.5373 40.99 58.2353 41.633C58.1763 41.758 58.1473 41.918 57.9923 41.93C57.3543 41.979 57.3583 42.443 57.3433 42.9C57.3403 43.003 57.3463 43.107 57.3273 43.207C57.2273 43.742 57.1193 43.824 56.4833 43.87C56.7483 44.86 56.6043 45.267 55.6943 46.055C55.6413 46.101 55.5613 46.118 55.5763 46.199C55.6953 46.841 55.2533 47.271 55.0473 47.8C54.7653 48.525 54.3383 49.152 53.9083 49.735C53.4833 50.311 53.2523 51.073 52.5613 51.45C52.4813 51.494 52.3703 51.643 52.3913 51.685C52.6993 52.315 52.0343 52.569 51.8723 53.013C51.6663 53.578 51.2493 53.997 50.5933 53.94C50.3943 54.345 50.9623 54.227 50.8913 54.517C50.8283 54.773 50.6573 54.942 50.4483 55.062C50.0943 55.264 49.8773 55.549 49.8163 55.951C49.6913 56.773 48.9243 56.895 48.3813 57.258C48.2173 57.367 48.0333 57.008 47.8403 57.238C48.5513 58.185 48.5053 58.154 47.8033 59.218C47.3383 59.924 47.0633 60.752 46.3193 61.263C46.2193 61.332 46.2443 61.587 46.2153 61.756C46.1683 62.021 45.9973 62.276 45.7573 62.228C45.0243 62.081 45.3773 62.81 45.0833 62.998C45.4003 63.413 45.0463 63.54 44.8083 63.795C44.5003 64.128 44.2623 64.554 44.0913 64.979C43.8903 65.48 43.6893 65.923 43.0943 66.031C42.8933 66.067 42.8243 66.22 42.8333 66.412C42.8503 66.763 42.6643 67.048 42.3883 67.174C41.5463 67.557 41.1423 68.301 40.7293 69.045C40.6533 69.181 40.5783 69.26 40.3883 69.233C40.1403 68.831 40.7303 68.696 40.6903 68.345C40.0983 68.194 40.1063 68.792 40.0243 69.03C39.8873 69.428 39.9493 69.861 39.4103 70.039C39.2663 70.087 39.5413 70.606 39.0723 70.609C38.9853 70.57 38.8973 70.536 38.8203 70.484C38.7253 70.42 38.7553 70.218 38.6023 70.24C38.5503 70.247 38.4893 70.4 38.4843 70.489C38.4693 70.736 38.6383 70.726 38.8083 70.685C38.9033 70.662 38.9953 70.627 39.0883 70.598C39.1103 71.627 38.4333 72.224 37.6753 72.694C37.2743 72.942 37.0263 73.197 37.0793 73.641C37.1313 74.081 36.9243 74.365 36.6293 74.608C36.4053 74.792 36.2203 74.942 36.3723 75.279C36.4253 75.395 35.4903 76.363 35.3893 76.562C35.0473 77.241 34.3903 77.416 33.7813 77.66C33.5043 77.771 33.1823 78.211 32.8683 77.609C32.7913 77.46 32.4373 77.695 32.3543 77.927C32.2103 78.331 32.1923 78.296 32.0293 78.435C31.4453 78.933 30.8633 79.229 30.1293 78.704C30.0613 78.655 29.8373 78.824 29.6713 78.898C29.5913 78.513 29.8853 78.343 30.0633 78.109C30.4293 77.627 30.3713 77.306 29.7823 77.119C29.3333 76.977 29.0893 76.713 28.9103 76.326H28.8773C29.1583 76.129 29.4863 76.379 29.7693 76.234C29.8683 76.069 29.8383 75.905 29.7843 75.736C29.5893 75.128 29.5243 75.098 28.9313 75.382C28.7773 75.456 28.6083 75.527 28.4913 75.644C28.2243 75.911 28.0443 75.849 27.8193 75.581C27.6963 75.434 27.4833 75.344 27.2933 75.279C27.1703 75.237 27.0333 75.309 26.9503 75.443C26.7333 75.795 25.9243 76.319 25.6763 76.221C25.4533 76.134 25.5583 75.854 25.4903 75.668C25.7893 75.606 26.1653 75.732 26.2993 75.272C26.0533 75.446 25.4533 74.824 25.5123 75.688C25.1723 75.665 25.1153 75.342 24.9353 75.141C25.1943 74.838 25.6223 74.854 25.8973 74.677C26.2663 74.44 26.4273 74.181 26.7413 74.718C26.9013 74.992 27.2253 74.855 27.4723 74.715C27.7163 74.576 27.8473 74.377 27.6613 74.129C27.5033 73.918 27.7593 73.643 27.5693 73.421C27.2513 73.626 27.4413 73.915 27.3363 74.104C27.2223 74.311 26.9403 74.569 26.7843 74.309C26.4363 73.728 26.0383 74.158 25.6203 74.235C25.6433 73.942 25.7953 73.825 25.9423 73.792C26.1903 73.735 26.5963 73.812 26.4593 73.41C26.3433 73.069 25.9423 73.311 25.7473 73.386C25.4583 73.497 25.1223 73.676 25.0723 74.072C25.0273 74.438 24.8123 74.786 24.9513 75.172C24.6323 74.96 24.4903 74.675 24.6223 74.299C24.8563 73.632 24.6123 72.968 24.6243 72.303C24.6303 71.992 24.5203 71.836 24.2023 71.908C23.9473 71.966 23.7163 72.042 24.0103 72.367C24.1843 72.56 23.9923 72.677 23.8333 72.725C23.4663 72.836 23.8823 73.079 23.7263 73.229C23.4203 73.25 23.4013 72.936 23.2523 72.783C23.0183 72.541 22.8283 72.289 23.4303 72.25C23.5123 72.245 23.5853 71.669 23.6093 71.353C23.6203 71.207 23.4253 71.098 23.3303 71.252C23.1563 71.537 23.0023 71.35 22.8243 71.296C22.6303 71.237 22.5383 71.123 22.5613 70.921C22.5823 70.734 22.7193 70.718 22.8603 70.736C23.2463 70.786 23.2573 70.554 23.1743 70.296C23.0823 70.008 22.8723 70.098 22.6803 70.191C22.6493 70.206 22.6243 70.231 22.5953 70.249C22.4293 70.354 22.2673 70.527 22.0803 70.279C21.9103 70.055 22.0593 69.884 22.1973 69.74C22.3933 69.535 22.5433 69.33 22.5213 69.025C22.4853 68.51 22.1383 68.289 21.6473 68.534C21.4433 68.636 21.2853 68.704 21.0203 68.548C21.0013 68.209 21.3753 68.017 21.4453 67.698C21.4663 67.599 21.5693 67.43 21.7433 67.562C22.1453 67.868 22.2873 67.629 22.3553 67.266C22.4343 66.844 22.7033 66.87 22.9453 67.059C23.3803 67.398 23.6423 67.551 23.8653 66.824C23.9633 66.505 24.3523 66.29 24.2483 65.83C24.1973 65.601 24.5263 65.572 24.6913 65.437C24.4653 65.285 24.2373 65.158 23.9783 65.124C23.8453 65.183 23.8823 65.281 23.8843 65.381C23.8963 66.171 23.6833 66.455 22.9533 66.36C22.5463 66.307 22.5673 66.567 22.4303 66.738C22.2003 66.462 21.6183 66.446 21.6233 66.118C21.6303 65.631 21.0423 65.327 21.3093 64.803C21.3603 64.702 21.2953 64.547 21.1383 64.473C20.5473 64.193 20.3683 63.812 20.8723 63.28C21.0033 63.141 20.9723 62.978 20.9543 62.801C20.9053 62.301 21.0603 62.078 21.6063 62.322C22.0653 62.526 22.1583 62.268 22.0653 61.871C22.1553 61.925 22.2383 62.009 22.3293 62.018C22.8983 62.077 22.7993 62.404 22.6033 62.729C22.4843 62.926 22.2863 63.074 22.1373 63.256C22.0253 63.392 21.9173 63.64 22.0633 63.712C22.4213 63.888 22.4263 64.385 22.7183 64.489C23.3113 64.701 22.9103 64.969 22.8013 65.177C22.6563 65.454 22.4723 65.276 22.3113 65.142C22.1423 65.001 22.0963 64.682 21.7053 64.774C21.6743 65.286 21.9203 65.666 22.3933 65.772C22.7783 65.858 23.0783 65.573 23.1873 65.177C23.2383 64.992 23.3403 64.879 23.5013 64.801C23.5403 64.75 23.5823 64.703 23.6263 64.658C23.7063 64.576 23.8873 64.742 23.9103 64.548C23.9143 64.517 23.8133 64.464 23.7543 64.436C23.6313 64.378 23.4903 64.322 23.4653 64.53C23.4533 64.625 23.4993 64.727 23.5193 64.826C23.3983 64.666 23.2803 64.504 23.1563 64.347C22.5913 63.63 22.5913 63.631 23.0853 62.853C23.4263 62.317 23.2053 61.863 22.5673 61.815C22.4023 61.803 22.2323 61.857 22.0643 61.881C21.9793 61.953 21.8493 62.007 21.9003 61.832C21.9833 61.547 22.3433 61.375 22.5183 61.364C23.3143 61.314 22.6753 60.892 22.7393 60.667C22.0873 60.579 22.1793 60.039 22.0823 59.605C22.0393 59.412 21.9393 59.233 21.8643 59.043C21.4173 59.219 21.5503 59.61 21.7153 59.803C21.9993 60.134 22.0173 60.457 21.9693 60.841C21.9453 61.034 22.0743 61.296 21.8283 61.382C21.5533 61.478 21.4183 61.762 21.1593 61.83C20.8723 61.906 20.7353 61.672 20.6213 61.453C20.5183 61.256 20.4713 61.065 20.7183 60.931C20.8383 60.866 20.9853 60.826 21.0753 60.733C21.2393 60.562 21.0643 60.422 20.9753 60.295C20.8653 60.139 20.7853 60.203 20.6863 60.343C20.4453 60.682 20.1783 60.987 19.8953 60.368C19.8523 60.274 19.7613 60.268 19.7613 60.344C19.7623 61.018 19.1383 60.687 18.8603 60.91C18.7073 61.033 18.5933 61.152 18.7993 61.301C18.9873 61.437 19.0583 61.611 19.0583 61.829L19.0973 61.792C18.6833 61.82 18.2313 61.916 18.4383 61.208C18.4863 61.045 18.3623 60.828 18.1163 60.803C17.9633 61.05 18.2193 61.443 17.8213 61.593L17.8533 61.615C17.5953 61.038 17.3953 60.433 16.6473 60.263C16.3583 60.198 15.8883 60.053 16.3783 59.592C16.4963 59.481 16.4543 59.286 16.3243 59.253C16.0013 59.172 15.7153 58.682 15.3573 59.058C15.1663 59.258 15.0843 59.201 14.9983 59.049C14.8733 58.829 15.0403 58.752 15.2243 58.726C15.3233 58.712 15.4283 58.741 15.5283 58.727C15.6773 58.707 15.7903 58.61 15.7973 58.463C15.8053 58.291 15.6553 58.219 15.5243 58.266C15.0703 58.427 15.1163 58.125 15.0953 57.848C15.0643 57.443 15.3813 57.063 15.1753 56.648C15.3353 56.623 15.5003 56.564 15.6563 56.58C16.1093 56.626 15.9923 56.297 15.8923 56.145C15.7253 55.892 15.3653 55.752 15.1183 55.803C14.8373 55.862 15.0263 56.198 15.0563 56.411C15.0693 56.503 15.1523 56.584 15.2033 56.67C14.9343 56.589 14.9163 57.482 14.4993 56.851C14.4783 56.818 14.3683 56.811 14.3213 56.835C14.2193 56.886 14.1693 56.984 14.2793 57.071C14.5523 57.285 14.4693 57.537 14.3683 57.826C13.9213 57.729 13.5953 57.505 13.6043 57.016C13.6123 56.58 14.1723 56.428 14.2083 55.927C13.9893 55.641 13.4883 56.004 13.2753 55.583C13.0543 55.147 13.4713 55.013 13.6093 54.759C13.5403 54.477 13.2873 54.537 13.1183 54.471C12.9313 54.399 12.7253 54.378 12.4523 54.318C12.9773 53.552 13.3423 52.753 13.5033 51.78C12.9753 51.638 12.5343 51.282 12.0303 51.034L12.0593 51.067C12.0653 51.001 12.0823 50.934 12.0743 50.87C12.0423 50.614 12.4823 50.454 12.2213 50.164C12.1683 50.105 11.9843 50.064 11.9713 50.086C11.8183 50.324 11.7563 50.594 11.7693 50.877C11.7723 50.939 11.8093 51 11.8303 51.061L11.8633 51.044C11.4193 51.103 10.9213 50.708 10.5263 51.234C10.3853 51.422 10.1603 51.427 10.0333 51.175C9.90026 50.911 9.94226 50.727 10.2823 50.665C10.4403 50.636 10.5833 50.527 10.8093 50.417C10.3613 49.972 10.3963 49.427 10.3423 48.88C10.2873 48.329 9.78626 47.904 9.75826 47.265C9.49026 47.61 9.43926 48.091 8.88926 48.083C8.68326 47.954 8.87726 47.742 8.85126 47.562C8.77526 47.026 8.59126 46.584 7.96726 46.46C7.68326 46.404 7.46226 46.168 7.49526 45.862C7.52826 45.557 7.91926 45.573 8.06526 45.572C8.91526 45.569 8.31826 44.97 8.69626 44.596C8.28226 44.761 8.37026 45.133 8.08926 45.062C7.87026 45.007 7.57926 44.905 7.64826 44.617C7.73126 44.271 7.65426 44.114 7.31726 44.011C7.08326 43.939 7.30526 43.818 7.32526 43.708C7.38526 43.382 7.27026 43.236 6.94926 43.458C6.63026 43.678 6.28226 43.554 6.16826 43.309C6.00926 42.965 5.78726 42.582 5.93026 42.158C5.94826 42.106 6.02626 42.059 6.08626 42.039C6.24026 41.987 6.36126 42.053 6.40626 42.202C6.48526 42.46 6.49326 42.772 7.00626 42.71C6.83026 42.37 7.36226 41.76 6.48026 41.763C6.18226 41.112 5.71226 41.595 5.24426 41.669C5.33126 41.25 5.62726 41.105 5.83726 40.966C6.16426 40.751 6.07426 40.517 5.98126 40.268C5.95926 40.209 5.81026 40.197 5.72026 40.163C5.66126 40.491 5.52526 40.764 5.26626 40.332C5.20126 40.224 4.68826 39.677 5.42226 39.589C5.55126 39.573 5.61026 39.464 5.55526 39.384C5.43826 39.214 5.21626 39.031 5.05026 39.131C4.72526 39.327 4.59426 39.317 4.31026 39.001C3.89926 38.542 3.82926 38.601 3.99426 38.205C4.07126 38.021 4.16426 37.842 4.27726 37.602C4.64926 38.243 5.48826 38.229 5.73926 38.929C5.78926 39.066 6.06326 39.011 6.18226 38.861C6.28926 38.726 6.36426 38.552 6.15326 38.432C5.96726 38.326 5.62026 38.342 5.78326 37.98C5.89226 37.738 6.23426 37.899 6.42526 37.728C6.25026 37.452 5.88826 37.494 5.79126 37.203C5.68426 36.881 5.57326 36.644 5.19226 36.999C5.06726 37.115 4.88326 36.898 4.84326 36.727C4.79726 36.533 4.88126 36.409 5.10726 36.39C5.57426 36.351 6.03926 36.294 6.26326 36.929C6.48726 36.521 6.57326 36.208 6.42826 35.871C6.25126 35.46 5.91626 35.362 5.52126 35.599C4.78526 36.04 4.77126 36.045 4.51626 35.287C4.34926 34.788 4.20726 34.618 3.94826 35.236C3.94226 35.249 3.32126 35.822 3.32926 35.047C3.33426 34.632 2.68026 35.1 2.71326 34.563C2.72526 34.37 2.53326 34.036 2.13726 34.187C1.94626 34.259 1.89426 34.042 1.93926 33.938C2.04826 33.687 2.16726 33.465 2.08826 33.166C2.05226 33.029 2.19026 32.937 2.36526 33.031C2.47826 33.092 2.61926 33.389 2.72926 33.073C2.79726 32.877 2.88526 32.597 2.58126 32.445C2.00426 32.157 2.01226 32.152 1.83926 31.499C1.79926 31.347 1.65626 31.322 1.51126 31.374L1.54526 31.407C1.54426 31.12 1.40426 30.875 1.27626 30.639C0.952258 30.043 0.939259 30.049 1.51726 29.705C1.61126 29.649 1.66826 29.581 1.66526 29.448C1.42726 29.317 1.04926 29.562 0.880258 29.186C0.853258 28.86 1.40326 28.823 1.25626 28.399C1.08726 28.243 1.02026 28.547 0.878259 28.534C0.695259 28.517 0.676259 28.978 0.419259 28.701C0.226259 28.493 0.21926 28.272 0.48826 28.103C0.60926 28.027 0.692259 27.934 0.669259 27.767C0.530259 27.571 0.0852571 27.963 0.0762571 27.465C0.0702571 27.124 0.279256 27.099 0.529256 27.046C0.915256 26.964 0.966256 26.716 0.682256 26.478C0.436256 26.273 0.858258 25.762 0.290258 25.719C0.194258 25.712 0.309258 25.487 0.373258 25.369C0.471258 25.191 0.744259 25.16 0.753259 24.911C-0.163741 24.16 -0.229744 23.728 0.480256 23.117L0.451257 23.129C0.877257 23.043 1.12926 22.608 1.58226 22.561C1.62026 22.557 1.57426 22.386 1.48426 22.327L1.46026 22.356C2.04326 22.245 1.85726 21.784 1.77926 21.484C1.64326 20.957 1.20026 21.209 0.859258 21.237L0.893258 21.281C1.02526 21.028 0.663259 20.635 1.07926 20.48C1.57926 20.294 1.91426 20.604 2.22026 20.958C2.30326 20.586 2.76426 20.298 2.44726 19.837C2.23326 19.788 2.09526 19.958 1.91726 20.029C1.25126 20.294 0.916257 19.997 1.02826 19.292C1.03126 19.276 1.08626 19.253 1.11226 19.258C1.14226 19.264 1.16626 19.297 1.19326 19.318C1.43126 19.241 1.81126 19.483 1.88226 19.016C1.54726 18.894 1.41226 19.203 1.19126 19.318C1.19426 19.189 1.31526 18.954 1.22526 18.951C0.690259 18.936 0.711257 18.525 0.583257 18.184C0.295257 17.424 0.27926 17.43 1.14126 17.253C1.17226 18.098 1.26526 18.148 2.21626 17.84C2.24626 18.334 2.24626 18.334 2.61126 18.601C2.72326 18.205 2.50526 18.006 2.20226 17.853C2.08526 17.761 2.13026 17.433 1.94626 17.525C1.55426 17.72 1.38226 17.389 1.11926 17.277C0.921256 17.065 0.573259 16.968 0.579259 16.602C0.711259 16.465 0.832258 16.497 0.949258 16.595C1.10026 16.723 1.25126 16.785 1.32626 16.536C1.40526 16.272 1.20226 16.274 1.02926 16.268C0.926256 16.265 0.823258 16.275 0.720258 16.27C0.611258 16.264 0.523259 16.219 0.517259 16.094C0.511259 15.946 0.570259 15.826 0.704259 15.755C0.974259 15.611 1.20526 15.814 1.45526 15.857C1.62726 15.522 1.26926 15.583 1.18726 15.453C1.02926 15.203 0.666256 14.921 1.16126 14.615C1.36626 14.488 1.28726 14.26 1.25226 14.052C1.11426 13.248 1.14226 13.114 1.88826 12.861C2.27726 12.729 2.36826 12.518 2.41826 12.196C2.44826 12.213 2.47826 12.229 2.50826 12.248C2.70826 12.374 2.75026 12.803 3.13726 12.576C3.22726 12.523 3.34126 12.472 3.27526 12.349C3.07826 11.985 2.80726 12.04 2.51626 12.23C2.49926 12.241 2.45426 12.208 2.42226 12.196C2.37526 12.354 2.23226 12.358 2.10826 12.411C1.70526 12.581 1.57926 12.372 1.65326 12.041C1.71026 11.787 1.81526 11.434 1.94926 11.314C2.47226 10.845 2.55326 10.206 2.79026 9.62298C2.88026 9.40198 2.99226 9.16599 3.16026 9.00599C3.96126 8.24499 4.27226 7.13198 5.02626 6.36298C6.16326 5.20298 7.03626 3.77398 8.51926 2.95498C8.86126 2.76598 9.14126 2.40799 9.36126 2.06999C9.81126 1.37699 9.91226 1.25599 10.7613 1.06199C10.8763 1.03599 10.9413 1.01498 10.9563 0.920983C10.9963 0.665983 11.0783 0.399988 11.3703 0.425988C11.7653 0.460988 11.5873 0.870976 11.7733 1.18298C11.8753 0.390976 12.6093 0.538979 13.0343 0.219979C13.4973 -0.127021 14.0103 -0.0170113 14.5673 0.229989C14.9923 0.417989 15.5553 0.338976 16.0523 0.307976C16.6733 0.269976 17.1553 0.754978 17.6513 0.790978C18.2523 0.833978 18.8953 0.842986 19.2393 1.24899C19.6693 1.75799 20.5483 1.63798 20.7223 2.41998C20.7363 2.48198 20.9053 2.55798 20.9913 2.54598C21.9183 2.41798 22.1743 3.17598 22.5693 3.73698C22.7453 3.98598 22.8113 4.36398 23.0393 4.51698C23.7973 5.02598 23.7603 5.67498 23.4073 6.45498C23.7823 6.40298 23.8593 6.18099 23.9713 5.99099C24.0653 5.83199 24.1883 5.70599 24.3793 5.85699C24.5443 5.98699 24.7293 6.16599 24.5423 6.36599C24.3113 6.61199 24.2533 6.88998 24.2243 7.24598C24.9403 6.95198 25.4393 7.54198 26.0553 7.67098C26.2603 7.71398 26.4733 8.04398 26.5483 8.28498C26.6103 8.48698 26.1993 8.58598 26.2363 8.92498C26.3443 9.15698 26.6433 8.99798 26.8343 9.10598C27.0023 9.20098 27.2673 9.24098 27.2113 9.51098C27.1713 9.70498 27.0833 9.90198 26.8273 9.94398C26.7153 9.96298 26.5883 9.81599 26.5103 9.96499C26.4983 9.98899 26.6543 10.088 26.7163 10.166C26.8093 10.282 26.9323 10.322 27.0693 10.354C27.3073 10.411 27.7763 10.317 27.6353 10.717C27.5033 11.089 27.5903 11.729 26.9843 11.77C26.2243 11.822 26.2613 12.288 26.2823 12.829C26.2953 13.158 26.5193 13.63 25.9053 13.701C25.4373 13.755 25.1893 13.493 25.0453 12.919C24.8263 12.047 24.5463 11.2 23.6143 10.762C24.2613 11.711 24.6233 12.76 24.8363 13.905C24.4543 13.994 24.1213 14.077 23.9993 14.592C23.9123 14.96 23.5023 15.249 22.9463 15.146C22.8793 14.75 23.1473 14.292 22.8593 13.907C23.0673 13.927 23.2753 13.985 23.4713 13.955C24.2453 13.838 24.3503 13.595 24.0013 12.794C23.8883 12.351 23.5483 12.263 23.0593 12.136C23.2723 12.588 23.2653 12.988 23.6573 13.171C23.7413 13.797 23.2383 13.785 22.8573 13.905C21.8743 13.882 22.7603 13.323 22.5833 12.872C22.3623 13.622 21.8553 13.995 21.5333 14.51C21.4093 14.708 21.0383 14.684 21.0663 14.518C21.1583 13.979 20.7783 14.046 20.4943 13.915C20.0053 13.689 19.9723 13.377 20.3363 12.946C20.7183 13.28 20.7183 13.28 21.1183 12.974C20.8173 12.974 20.5633 12.974 20.3103 12.974C20.1283 12.627 19.7623 12.383 19.7553 11.937C19.7513 11.716 19.5923 11.768 19.4283 11.721C18.8873 11.568 18.3503 11.346 18.2413 10.675C18.5603 10.709 18.8783 10.743 19.1693 10.773C19.2903 10.298 19.2743 9.92598 18.7943 9.75698C18.5813 9.68198 18.4653 9.55298 18.4403 9.31898C18.4223 9.14698 18.4793 8.83199 18.1613 8.93499C17.9093 9.01599 18.0673 9.27698 18.0873 9.46198C18.0983 9.56298 18.1183 9.66199 18.1333 9.75999C17.9543 9.72599 17.8103 9.37199 17.6333 9.61599C17.5013 9.79799 17.7503 10.035 17.9033 10.078C18.1723 10.155 17.9673 9.81198 18.1133 9.73698C18.5293 10.001 18.5113 10.331 18.2583 10.696C17.6083 10.544 17.2743 10.002 16.8673 9.55398C16.7803 9.45798 16.7573 9.25899 16.6603 9.22099C16.0153 8.96899 16.1003 8.57098 16.3733 8.08898C16.4263 7.99498 16.3533 7.82999 16.3383 7.70199C15.7993 7.69899 16.1513 8.23399 15.8833 8.37899C15.8183 8.35799 15.7453 8.35498 15.7013 8.31698C15.3493 8.01398 15.9463 7.30998 15.3033 7.20098C14.8623 7.12598 14.4813 7.07499 14.0943 6.79699C13.7613 6.55799 13.2173 6.60998 13.2353 5.98098C13.2393 5.83398 13.0553 5.79998 12.9263 5.92098C12.8553 5.98898 12.7173 6.11699 12.6993 6.06399C12.4503 5.35399 11.8913 5.73299 11.4763 5.73199C10.9063 5.72999 11.0513 5.21198 10.8243 4.87798C9.94526 5.79198 9.38526 6.99999 8.01326 7.25999C8.18426 7.51599 8.37126 7.31098 8.53026 7.33898C8.83726 7.39298 9.02126 7.59098 8.80326 7.81998C8.14226 8.51698 8.41926 9.60699 7.73326 10.264C7.53526 10.454 8.10826 10.808 7.56126 10.858C7.43826 10.471 7.16826 10.288 6.76626 10.289C6.73726 10.307 6.70026 10.348 6.68126 10.341C6.46826 10.257 6.22226 10.043 6.14026 10.467C6.10826 10.631 6.07926 10.836 6.25826 10.936C6.54926 11.099 6.69526 10.868 6.83126 10.671C6.92526 10.534 6.78926 10.414 6.76926 10.287C7.02926 10.487 7.00126 11.122 7.58726 10.835ZM21.0573 6.44698C21.1243 6.20698 21.3053 5.96498 21.0653 5.72698C21.0363 5.69798 20.9123 5.70798 20.8923 5.73898C20.7043 6.02698 21.0593 6.19498 21.0583 6.44598C21.1203 6.46298 21.2003 6.46198 21.2403 6.50198C21.3773 6.63798 21.4663 6.86098 21.7203 6.74398C21.7573 6.72698 21.7943 6.61998 21.7753 6.58398C21.6563 6.36198 21.4633 6.37398 21.2543 6.43798C21.1933 6.45598 21.1233 6.44498 21.0573 6.44698ZM2.63426 27.148C2.35926 27.044 2.10926 27.018 2.00226 27.373C1.96926 27.481 2.02426 27.588 2.12026 27.615C2.48126 27.716 2.39026 27.326 2.54926 27.202C2.57526 27.182 2.60426 27.166 2.63226 27.147C2.65226 26.989 2.78326 26.942 2.89926 26.877C3.02126 26.809 3.12526 26.726 3.07626 26.562C3.04026 26.443 2.93726 26.44 2.83826 26.436C2.68226 26.429 2.56226 26.507 2.55826 26.655C2.55226 26.819 2.60526 26.984 2.63426 27.148ZM20.4913 9.10598C20.7123 9.23298 20.9213 9.22898 21.0933 9.02798C21.1443 8.96798 21.1103 8.89698 21.0413 8.87498C20.7703 8.78798 20.6213 8.96398 20.4743 9.14098C20.5423 8.82998 20.3293 8.83798 20.1263 8.83498C20.4173 8.37098 20.0163 8.14099 19.8133 7.84399C19.7223 8.24199 19.3203 8.75699 20.1483 8.81799C20.0573 8.99999 19.9473 9.17598 19.8823 9.36698C19.8373 9.49998 19.8853 9.63699 20.0533 9.67999C20.2193 9.72199 20.3043 9.62998 20.3553 9.48998C20.4013 9.36398 20.4443 9.23798 20.4913 9.10598ZM20.3133 56.618C20.6013 56.613 20.7663 56.786 20.8923 57.016C20.1903 57.526 20.1903 57.526 20.8643 58.063C20.9113 57.736 21.3813 57.463 20.9873 57.081C21.0453 57.002 21.1373 56.93 21.1573 56.842C21.2803 56.283 20.7543 56.377 20.5023 56.283C20.2823 56.2 20.3483 56.495 20.3383 56.645C20.1813 56.635 19.9953 56.562 19.8913 56.719C19.8293 56.812 19.9483 56.909 20.0453 56.92C20.2623 56.945 20.3233 56.806 20.3133 56.618ZM9.29226 38.689C9.31726 38.711 9.34426 38.731 9.36826 38.755C9.47426 38.863 9.54126 39.075 9.75126 38.91C9.79826 38.873 9.85826 38.795 9.84726 38.753C9.77926 38.498 9.59226 38.641 9.44826 38.652C9.38426 38.657 9.32226 38.695 9.26026 38.718C9.68026 37.98 9.68026 37.98 8.98826 37.857C9.09126 38.148 9.18826 38.422 9.29226 38.689ZM22.5893 6.54998C22.6633 6.86398 22.6853 7.20998 23.0953 7.36398C22.9933 7.01698 23.2663 6.45898 22.5533 6.58398C22.6183 6.39398 22.6933 6.20699 22.7463 6.01399C22.8123 5.77499 22.6333 5.72498 22.4653 5.71798C22.2713 5.70998 22.1833 5.79898 22.2003 6.02798C22.2223 6.30298 22.3463 6.45998 22.5893 6.54998ZM25.9273 22.475C26.0343 22.902 26.0343 22.902 26.4953 22.998C26.3643 22.714 26.2103 22.522 25.9063 22.494C25.8823 22.046 26.1423 21.471 25.2803 21.272C25.4843 21.629 25.6213 21.892 25.5813 22.215C25.5583 22.398 25.7213 22.508 25.9273 22.475ZM27.7693 19.584C28.0403 19.54 28.2963 19.442 28.5033 19.27C28.6623 19.138 28.5983 18.851 28.4713 18.85C28.1903 18.847 27.9083 18.973 27.6273 19.047C27.6813 19.233 27.7343 19.419 27.7883 19.606C27.6913 19.609 27.5923 19.6 27.4973 19.617C27.3993 19.634 27.1943 19.559 27.2843 19.786C27.3133 19.859 27.4383 19.937 27.5213 19.939C27.7513 19.942 27.7553 19.752 27.7693 19.584ZM15.1863 52.539C15.7943 52.206 15.7943 52.206 15.3773 51.53C15.0393 52.02 15.0393 52.02 15.2103 52.555C15.2063 52.656 15.2063 52.758 15.1963 52.858C15.1793 53.029 14.8943 53.183 15.1963 53.376C15.4393 53.531 15.6283 53.538 15.8553 53.263C15.6343 53.026 15.3213 52.855 15.1863 52.539ZM25.1823 10.656C25.7353 10.783 25.8753 10.455 25.9683 9.93098C25.5633 10.046 25.3193 10.269 25.0753 10.471C24.9923 10.54 25.0923 10.646 25.2113 10.661C24.6743 11 25.1723 11.372 25.1963 11.722C25.2053 11.854 25.4293 12.024 25.5883 11.867C25.7153 11.741 26.0783 11.567 25.7483 11.34C25.4803 11.155 25.4993 10.772 25.1823 10.656ZM52.3583 6.74699C52.3833 7.27699 51.7463 7.49299 51.7563 8.01399C51.7583 8.14199 51.7173 8.32099 51.8863 8.34599C52.0063 8.36399 52.2103 8.31598 52.2583 8.23098C52.4193 7.94498 52.5523 7.63598 52.6493 7.32198C52.7363 7.04198 52.3943 6.94498 52.3293 6.72398C52.8253 6.63098 53.1133 6.39798 52.9503 5.84698C52.5253 6.01298 52.5233 6.43099 52.3583 6.74699ZM26.1173 71.339C26.0733 71.524 25.9243 71.748 26.2523 71.81C26.3163 71.822 26.4653 71.715 26.4703 71.654C26.4893 71.39 26.3463 71.291 26.0893 71.365C26.0943 71.267 26.1113 71.167 26.1003 71.071C26.0783 70.867 26.0313 70.623 25.7963 70.616C25.5643 70.61 25.5033 70.807 25.4913 71.046C25.4743 71.382 25.2353 71.634 25.0523 71.904C24.9593 72.042 25.0223 72.156 25.1673 72.226C25.3213 72.3 25.4863 72.382 25.6333 72.241C25.7673 72.112 25.7503 71.943 25.6973 71.771C25.5753 71.379 25.7763 71.289 26.1173 71.339ZM25.7923 19.667C25.5423 19.851 25.4143 20.19 25.4223 20.608C25.4233 20.666 25.3623 20.725 25.3323 20.785C25.1413 21.162 25.4793 21.12 25.6003 21.044C25.9223 20.841 26.2023 20.572 26.6743 20.185C25.9573 20.391 25.9043 19.985 25.7903 19.657C25.9923 19.841 26.2143 19.855 26.5013 19.708C26.3093 19.399 26.3253 18.964 25.9163 18.782C25.6423 19.088 26.3273 19.437 25.7923 19.667ZM13.6783 50.617C14.1793 50.388 15.0213 50.55 14.8913 49.595C14.8543 49.325 15.5343 49.25 15.0953 48.995C14.8073 48.828 14.7263 49.395 14.4253 49.496C14.3143 49.533 14.3943 49.714 14.4663 49.844C14.5553 50.005 14.2983 50.111 14.2753 50.099C13.5403 49.71 13.7883 50.352 13.7013 50.638C13.4653 50.619 13.2193 50.526 12.8053 50.745C13.2603 50.84 13.5513 51.206 13.6783 50.617ZM62.7773 24.82C62.7343 24.74 62.7073 24.553 62.6043 24.649C62.4823 24.763 62.4593 25.132 62.2473 24.778C62.1433 24.605 61.9043 24.443 61.9753 24.178C62.2513 23.984 62.5073 24.313 62.7713 24.184C62.9523 24.095 63.0023 23.942 62.9723 23.76C62.9423 23.573 62.8193 23.576 62.6713 23.624C62.5783 23.654 62.4383 23.714 62.3883 23.674C61.9283 23.309 61.9583 24.058 61.5813 24.024C61.3913 24.007 61.7463 24.286 61.6583 24.472C61.5593 24.68 61.7693 24.946 61.5633 25.126C61.3373 25.219 61.1423 25.07 60.9463 25.096C60.7443 25.123 60.6243 25.371 60.6873 25.473C60.8603 25.755 61.0733 26.015 61.4683 26.063C61.8353 26.108 61.8333 25.89 61.8963 25.65C61.9743 25.352 62.2343 25.227 62.5113 25.169C62.7213 25.125 62.7923 25.01 62.7793 24.818C63.5163 25.202 63.6843 26.007 63.1633 27.002C63.8963 26.729 63.8323 25.991 64.2053 25.581C64.2233 25.561 64.1613 25.416 64.1333 25.415C63.6033 25.392 63.4553 24.496 62.7773 24.82ZM3.19726 31.369C3.39626 31.181 3.33926 31.019 3.28726 30.853C3.18826 30.536 3.11326 30.181 2.75826 30.696C2.69126 30.793 2.57026 30.725 2.49626 30.649C2.37526 30.523 2.41726 30.435 2.54326 30.322C2.74126 30.145 2.88526 29.919 3.14326 29.792C3.26626 29.731 3.42026 29.457 3.20226 29.388C2.77226 29.251 2.61226 29.093 2.90126 28.679C3.03526 28.488 2.80726 28.473 2.72126 28.41C2.60626 28.325 2.45926 28.305 2.34426 28.41C2.12926 28.606 1.92926 28.923 2.15326 29.12C2.73126 29.63 2.30426 29.947 1.97826 30.243C1.86326 30.347 1.61126 30.477 1.76026 30.536C2.07526 30.662 2.08226 31.242 2.28126 31.109C2.75526 30.79 2.91726 31.326 3.19726 31.369ZM5.48726 28.69C5.34626 30.001 5.34626 30.001 4.29626 29.646C4.22726 29.917 4.51426 30.056 4.54026 30.276C4.59926 30.778 4.93826 30.856 5.16626 30.538C5.45726 30.131 5.93226 30.282 6.30026 29.952C5.95926 29.599 6.27326 28.892 5.48726 28.69ZM11.0063 47.246C11.9813 47.469 11.5473 48.227 11.7173 48.725C11.8223 49.032 11.5453 49.445 11.0433 49.454C10.9103 49.456 10.8083 49.59 10.8553 49.755C10.9023 49.92 11.0553 49.928 11.1853 49.944C11.4433 49.975 11.8043 49.794 11.7923 49.679C11.7383 49.14 12.5873 48.924 12.2683 48.401C12.1303 48.175 12.0933 47.999 12.0803 47.766C12.0503 47.187 11.7543 46.971 11.0063 47.246ZM11.2503 44.848C11.8433 45.001 12.6233 44.651 12.9533 45.492C12.9593 45.507 13.0113 45.517 13.0363 45.51C13.2163 45.463 13.3233 45.336 13.3933 45.172C13.5213 44.874 13.3483 44.648 13.1863 44.443C13.1003 44.335 12.9123 44.337 12.8203 44.453C12.6633 44.652 12.5733 45.003 12.3553 44.483C12.2273 44.177 11.8983 43.989 11.6123 44.082C11.3233 44.176 11.1913 44.505 11.2503 44.848ZM6.99326 32.456C6.84926 32.808 6.96726 32.994 7.15026 33.18C7.25326 33.285 7.47326 33.454 7.30026 33.593C7.00126 33.834 7.20926 33.925 7.38026 34.019C7.86726 34.287 8.34226 34.056 8.56926 33.492C8.68026 33.218 8.37726 33.151 8.34226 33.155C7.74126 33.236 7.35426 32.858 6.99326 32.456ZM5.42126 22.546C5.40026 22.438 5.37926 22.269 5.15126 22.255C4.91726 22.241 4.65626 22.281 4.45526 22.19C4.06326 22.012 3.93626 22.137 4.02426 22.506C4.08326 22.754 4.18726 23.004 3.86126 23.074C3.45726 23.161 3.70426 23.352 3.77126 23.487C3.89826 23.745 4.08526 23.704 4.24026 23.511C4.49626 23.193 4.72426 22.858 5.21226 22.892C5.36226 22.903 5.42926 22.759 5.42126 22.546ZM27.5643 72.122C27.8283 71.576 28.2593 71.41 28.7953 71.43C29.0983 71.441 29.2673 71.274 29.1573 70.993C29.0423 70.699 28.4123 70.579 28.2613 70.85C28.0953 71.148 27.9473 70.959 27.7833 70.99C27.4653 71.049 27.2283 70.76 26.8443 70.749C27.4743 71.434 27.4743 71.434 27.5643 72.122ZM10.3563 44.29C9.78926 44.159 9.50826 44.711 9.00026 44.64C9.27426 44.981 9.66026 45.258 9.42026 45.653C9.00726 46.335 9.54726 46.622 9.88226 47.028C9.92226 46.092 9.43826 45.094 10.3563 44.29ZM20.3883 55.913C19.7663 55.302 20.1533 54.56 19.5703 53.973C19.5453 54.523 19.0913 54.292 18.8433 54.476C18.6943 54.587 18.6603 54.887 18.7693 54.881C19.5173 54.838 19.4653 55.808 20.3883 55.913ZM22.4313 10.323C22.2333 10.302 22.1793 10.384 22.1743 10.49C22.1413 11.189 22.1173 11.868 21.5443 12.418C21.3243 12.629 21.4623 12.963 21.7643 13.151C22.4013 12.251 22.4543 11.297 22.4313 10.323ZM13.7203 53.361C13.6433 53.405 13.5323 53.435 13.4733 53.508C13.3203 53.697 13.5733 53.672 13.6163 53.755C13.8733 54.265 14.4263 54.573 14.5623 55.168C14.5933 55.303 14.7613 55.381 14.8943 55.311C15.0223 55.244 15.0413 55.093 14.9823 54.953C14.7353 54.369 14.3573 53.873 13.9223 53.42C13.8833 53.38 13.7993 53.383 13.7203 53.361ZM3.15526 33.599C3.46426 33.273 3.58026 32.848 4.03026 33.178C4.11026 33.237 4.21126 33.135 4.25726 33.042C4.30926 32.937 4.26126 32.784 4.18926 32.784C3.56126 32.783 3.44526 32.091 3.01026 31.839C2.93126 31.95 2.86526 32 2.86126 32.055C2.81826 32.564 3.14926 32.998 3.15526 33.599ZM29.4973 73.232C29.3373 73.59 29.9973 73.731 29.7113 73.918C29.3683 74.142 29.2443 74.839 28.5983 74.524C28.4723 74.463 28.3153 74.517 28.2873 74.685C28.2633 74.832 28.3863 74.92 28.4833 75.013C28.8333 75.348 29.0573 74.924 29.2733 74.822C29.6893 74.627 30.0243 74.216 30.1203 73.772C30.1893 73.46 29.7613 73.388 29.4973 73.232ZM22.8073 59.784C22.9453 60.192 23.2673 60.463 23.2473 60.902C23.2213 61.479 23.3343 61.523 23.8913 61.296C24.0443 61.234 24.3253 61.323 24.3583 60.995C24.0153 60.858 23.5413 60.877 23.5783 60.261C23.5883 60.099 23.2603 59.777 22.8073 59.784ZM58.2843 6.86599C58.2183 6.54599 57.9963 6.42399 57.7233 6.37899C57.4063 6.32599 57.3043 6.57398 57.2403 6.80198C57.1923 6.97298 57.7503 7.56098 57.9423 7.55198C58.4863 7.52698 57.7143 6.90599 58.2843 6.86599ZM17.6703 58.853C17.9863 58.847 18.0983 58.489 18.4173 58.427C18.8793 58.338 18.5423 57.926 18.5573 57.662C18.5663 57.502 18.4343 57.267 18.2603 57.325C17.7593 57.493 18.3193 57.65 18.2853 57.764C18.2313 57.944 18.0633 58.105 17.9103 58.236C17.7233 58.395 17.5303 58.526 17.6703 58.853ZM24.8593 63.945C24.4103 63.687 24.5143 63.132 24.1703 62.798C23.8383 63.129 23.7363 63.515 23.9453 63.854C24.1093 64.121 24.4583 64.164 24.8593 63.945ZM4.93926 19.92C4.84326 19.789 4.80326 19.688 4.73026 19.644C4.57626 19.552 4.38226 19.554 4.25626 19.669C3.90926 19.984 3.98026 20.457 3.88026 20.86C3.84726 20.992 4.18226 21.014 4.19026 20.979C4.29126 20.526 4.45926 20.126 4.93926 19.92ZM24.6253 69.283C24.7393 69.966 24.7393 69.966 24.9943 69.938C25.8873 69.839 25.8873 69.839 25.8463 68.892C25.5413 69.662 25.0153 69.108 24.6253 69.283ZM7.12526 39.438C7.10726 39.941 6.89926 40.202 6.46426 40.327C6.23926 40.392 6.37526 40.664 6.51226 40.714C6.77426 40.809 6.97726 40.895 7.09426 41.188C7.17026 41.378 7.37726 41.141 7.35626 41.11C7.02926 40.607 7.42026 40.031 7.12526 39.438ZM19.3683 3.22299C19.1823 3.46899 19.1143 3.58498 19.0213 3.67498C18.8193 3.86998 18.7843 4.08599 18.9263 4.31799C18.9983 4.43499 19.1423 4.55098 19.2663 4.48698C19.5233 4.35398 19.8443 4.26398 19.8963 3.90498C19.9053 3.84498 19.8723 3.77899 19.8593 3.71499C19.8143 3.74199 19.7723 3.77698 19.7243 3.79598C19.4373 3.90998 19.3493 3.82099 19.3683 3.22299ZM12.8603 46.256C12.6383 45.968 12.3773 46.342 12.1783 46.115C12.0833 46.006 12.1753 45.583 11.8293 45.852C11.5763 46.049 11.8443 46.175 11.9383 46.337C12.0403 46.511 11.8443 46.821 12.2033 46.903C12.4173 46.709 12.7233 46.601 12.8603 46.256ZM14.1873 5.52798C13.9993 5.50798 13.7173 5.56198 13.7093 5.90998C13.7023 6.21098 13.9723 6.26699 14.2163 6.23199C14.4483 6.19899 14.7913 6.31398 14.7873 5.87298C14.7833 5.50598 14.5123 5.57098 14.1873 5.52798ZM16.9503 59.241C17.1933 59.76 17.8453 59.614 17.8193 60.195C17.8123 60.345 18.1253 60.234 18.1973 60.093C18.3403 59.814 18.2763 59.537 17.9683 59.427C17.6943 59.329 17.3883 59.316 16.9503 59.241ZM27.0393 73.289C27.3543 72.588 27.3543 72.588 26.8003 72.124C26.4023 72.668 26.4023 72.668 27.0393 73.289ZM29.6623 72.863C30.2923 72.426 30.7203 72.129 31.1903 71.802C30.2123 71.362 30.0483 72.077 29.6623 72.863ZM7.08826 35.532C7.02026 35.564 6.95226 35.596 6.88426 35.628C6.88126 36.15 7.44226 36.55 7.26126 37.123C7.23626 37.203 7.44026 37.32 7.58626 37.279C7.73426 37.237 7.81626 37.107 7.75426 36.965C7.54226 36.482 7.31126 36.008 7.08826 35.532ZM4.02626 24.153C4.28726 24.467 3.70226 24.97 4.32326 25.116C4.53626 25.166 4.71326 25.007 4.75926 24.782C4.85426 24.308 4.54626 24.198 4.02626 24.153ZM17.0303 47.346C16.6193 47.075 16.5173 46.57 16.0323 46.877C15.8373 47.001 15.9053 47.274 16.0223 47.438C16.3543 47.905 16.5753 47.422 17.0303 47.346ZM21.1223 58.577C20.7133 58.36 20.5293 58.702 20.2583 58.687C20.0133 58.673 19.8833 58.829 19.8793 59.053C19.8743 59.309 20.1263 59.342 20.2913 59.438C20.5163 59.57 20.5623 59.361 20.6513 59.232C20.8013 59.016 20.9583 58.804 21.1223 58.577ZM3.35026 21.705C3.35926 21.56 3.31926 21.438 3.17926 21.372C2.93126 21.255 3.00826 21.491 2.98426 21.574C2.87326 21.952 2.74726 21.954 2.57726 21.611C2.53026 21.516 2.45226 21.449 2.34226 21.506C2.29026 21.533 2.22126 21.608 2.22726 21.652C2.27926 22.047 2.57726 22.228 2.91326 22.257C3.25426 22.286 3.34926 22.005 3.35026 21.705ZM19.6143 59.83C19.3293 59.519 19.1263 59.248 18.6773 59.146C18.8263 59.491 18.5083 59.839 18.7723 60.077C19.0693 60.344 19.3363 60.076 19.6143 59.83ZM5.70326 34.136C5.54826 33.998 5.34826 34.181 5.22626 33.99C5.01026 33.651 4.83926 33.866 4.68926 34.057C4.55826 34.225 4.47626 34.43 4.66026 34.6C4.84626 34.774 5.04626 34.625 5.21026 34.532C5.37826 34.437 5.51626 34.29 5.70326 34.136ZM28.7623 70.236C28.5223 70.025 28.8553 69.328 28.1663 69.759C28.0393 69.838 27.9163 69.802 27.8023 69.694C27.6623 69.56 27.4783 69.349 27.3843 69.716C27.3243 69.948 27.4913 70.171 27.7093 70.118C28.0463 70.034 28.2793 70.343 28.7623 70.236ZM1.55726 25.513C2.29826 24.93 2.29826 24.93 1.55726 24.196C1.55726 24.622 1.55726 25.004 1.55726 25.513ZM6.09226 27.977C5.81926 27.595 5.26126 28.03 5.13026 27.465C5.09826 27.328 4.92426 27.508 4.84626 27.593C4.78226 27.662 4.70526 27.776 4.82226 27.843C5.21626 28.07 5.59726 28.47 6.09226 27.977ZM13.7013 48.366C13.6763 48.142 13.5473 47.979 13.3333 47.982C13.1163 47.985 12.8543 48.007 12.8263 48.327C12.7943 48.682 13.0633 48.663 13.2863 48.694C13.5343 48.729 13.6463 48.583 13.7013 48.366ZM60.3353 27.841C60.6173 27.327 60.7433 26.814 61.0093 26.372C60.5873 26.735 60.0473 27.037 60.3353 27.841ZM16.6643 4.88798C16.9433 4.67098 17.2413 4.44998 17.5213 4.20698C17.5523 4.17998 17.5003 4.01898 17.4503 3.94398C17.3683 3.82198 17.1543 3.75698 17.1393 3.90298C17.0953 4.32098 16.7253 4.31099 16.4993 4.48599C16.4023 4.56199 16.4083 4.66599 16.4603 4.75599C16.4883 4.80599 16.5653 4.82698 16.6643 4.88798ZM17.0783 57.553C17.6993 57.1 17.6993 57.1 17.3913 56.416C17.2833 56.806 17.1813 57.18 17.0783 57.553ZM60.5803 22.099C60.5213 22.131 60.4083 22.184 60.4113 22.192C60.5373 22.518 60.6693 22.841 60.8203 23.156C60.8293 23.174 61.0143 23.134 61.0953 23.084C61.1903 23.025 61.2053 22.901 61.1353 22.819C60.9933 22.653 60.9693 22.452 60.9153 22.255C60.8723 22.097 60.7273 22.076 60.5803 22.099ZM15.8243 48.816C15.7993 49.151 15.4073 49.348 15.7323 49.625C16.0753 49.917 16.2873 49.523 16.5883 49.461C16.1943 49.426 16.1253 49.053 15.8243 48.816ZM16.9163 54.216C17.0153 54.137 17.0933 54.071 17.1763 54.011C17.4033 53.844 17.9563 53.787 17.7463 53.45C17.4153 52.919 17.4893 53.881 17.1423 53.717C17.0373 53.667 16.8663 53.713 16.7443 53.762C16.6423 53.802 16.6453 53.921 16.7203 54.009C16.7793 54.079 16.8473 54.144 16.9163 54.216ZM10.3263 41.657C10.2733 41.55 10.1333 41.349 10.0943 41.415C9.97626 41.61 9.61926 41.62 9.68226 41.937C9.71326 42.093 9.84826 42.182 9.97426 42.187C10.3403 42.202 10.2523 41.878 10.3263 41.657ZM29.6963 25.405C29.7023 24.739 29.4673 24.375 29.0553 24.32C29.0013 24.313 28.8933 24.363 28.8903 24.394C28.8823 24.482 28.9093 24.651 28.9333 24.653C29.3473 24.685 29.4383 25.091 29.6963 25.405ZM19.5683 7.05798C19.0923 6.87698 19.0703 7.30098 18.8523 7.41898C18.7113 7.49498 18.6893 7.65698 18.8353 7.73298C18.9603 7.79798 19.1863 7.93898 19.2563 7.70498C19.3263 7.46998 19.4443 7.27398 19.5683 7.05798ZM27.9853 16.823C27.4183 16.97 27.3513 17.041 27.3903 17.451C27.4023 17.583 27.4073 17.75 27.5803 17.749C28.0593 17.746 27.6663 17.287 27.8843 17.14C28.0003 17.061 28.0953 16.974 27.9853 16.823ZM2.28826 24.08C2.66626 23.683 2.71426 23.328 2.17326 23.058C1.88726 23.433 2.19126 23.747 2.28826 24.08ZM24.7423 66.988C24.9833 67.055 25.0543 66.789 25.2383 66.736C25.4813 66.667 25.6563 66.512 25.6233 66.228C25.6183 66.19 25.5233 66.144 25.4633 66.133C25.1913 66.081 25.0013 66.198 24.9163 66.456C24.8583 66.632 24.6033 66.745 24.7423 66.988ZM64.9573 16.612C64.7163 16.401 64.4203 16.882 64.1763 16.558C64.1453 16.516 63.8903 16.603 63.8903 16.76C63.8903 16.936 64.0453 17.113 64.2013 17.061C64.4713 16.972 64.7963 16.934 64.9573 16.612ZM20.8303 7.18998C21.0003 8.04398 21.0003 8.04399 21.6723 7.70799C21.4273 7.55699 21.1823 7.40698 20.8303 7.18998ZM26.0943 69.101C26.1423 69.583 26.3353 69.895 26.6423 70.145C26.6603 70.16 26.7863 70.098 26.8003 70.053C26.9313 69.612 26.5173 69.441 26.3383 69.152C26.3263 69.132 26.2753 69.136 26.0943 69.101ZM12.6753 41.465C12.4213 41.518 12.2973 41.507 12.2413 41.563C12.0653 41.743 11.6453 41.616 11.6613 42.02C11.6633 42.069 11.7363 42.148 11.7863 42.158C12.0793 42.213 12.3223 42.124 12.4793 41.857C12.5293 41.774 12.5673 41.684 12.6753 41.465ZM8.28926 40.301C8.07426 40.713 8.22926 40.994 8.46626 41.251C8.48826 41.275 8.61126 41.253 8.64326 41.215C8.93426 40.869 8.47126 40.688 8.45526 40.405C8.45426 40.388 8.40626 40.373 8.28926 40.301ZM26.1993 65.206C25.9413 64.849 25.7673 64.603 25.4123 64.739C25.3113 64.778 25.2253 64.965 25.2973 65.09C25.4913 65.429 25.7873 65.309 26.1993 65.206ZM59.8923 28.536C59.7183 28.574 59.5383 28.668 59.5373 28.839C59.5353 29.027 59.7173 29.104 59.9063 29.079C60.0593 29.059 60.2993 29.126 60.3053 28.894C60.3123 28.668 60.0963 28.587 59.8923 28.536ZM18.2253 7.75599C18.3653 7.68499 18.4263 7.50398 18.4043 7.29598C18.3873 7.13798 18.2433 7.05799 18.1183 7.11099C17.9393 7.18799 17.7483 7.30299 17.8433 7.56599C17.8933 7.70799 17.9873 7.78399 18.2253 7.75599ZM50.7223 7.67698C50.7223 7.25298 50.7223 6.90998 50.7223 6.56698C50.0393 6.70098 50.8593 7.27699 50.4503 7.49099C50.4963 7.52199 50.5413 7.55298 50.7223 7.67698ZM26.9173 67.982C26.8013 67.759 26.6073 67.647 26.3553 67.738C26.2833 67.764 26.0433 67.798 26.1703 67.998C26.2843 68.177 26.4433 68.284 26.6793 68.26C26.8553 68.243 26.9073 68.151 26.9173 67.982ZM7.85726 43.728C8.32326 43.854 8.54326 43.699 8.59426 43.325C8.60126 43.277 8.45326 43.161 8.37126 43.155C7.91926 43.12 8.12126 43.573 7.85726 43.728ZM28.1063 72.816C28.9283 73.148 28.9283 73.148 28.9363 72.381C28.6653 72.523 28.3993 72.662 28.1063 72.816ZM4.78226 31.775C4.54426 31.7 4.39126 31.331 4.09126 31.584C3.93826 31.714 3.96826 31.912 4.09526 32.03C4.37726 32.291 4.55826 31.99 4.78226 31.775ZM36.3493 23.205C37.0013 23.072 37.0013 23.072 36.7353 22.458C36.6003 22.707 36.2513 22.837 36.3493 23.205ZM36.6623 17.482C36.9513 17.669 37.1203 17.4 37.3353 17.34C37.5103 17.292 37.5213 17.176 37.4053 17.04C37.2933 16.908 37.1703 16.739 37.0013 16.929C36.8593 17.089 36.7733 17.296 36.6623 17.482ZM58.9093 10.052C59.1213 9.99198 59.1903 9.83498 59.2433 9.67698C59.3283 9.42398 59.0873 9.40999 58.9623 9.36999C58.7343 9.29799 58.6523 9.50398 58.6733 9.65798C58.6933 9.79998 58.8293 9.92598 58.9093 10.052ZM14.5723 47.556C14.1803 47.305 13.9383 47.158 13.6673 47.466C13.5623 47.586 13.5643 47.71 13.6873 47.802C14.0173 48.05 14.2153 47.754 14.5723 47.556ZM18.1163 5.68398C18.2163 5.61098 18.2893 5.54499 18.3733 5.49899C18.6303 5.35699 18.4883 5.15799 18.4313 4.99099C18.4133 4.93799 18.2603 4.88798 18.1833 4.90398C17.8443 4.97198 18.0743 5.20898 18.0653 5.37298C18.0603 5.46598 18.0943 5.56198 18.1163 5.68398ZM21.5643 4.96198C21.7533 4.94698 21.9393 4.89698 21.9173 4.68398C21.9013 4.52998 21.8073 4.33798 21.5813 4.41598C21.4323 4.46798 21.2073 4.48598 21.2033 4.69598C21.2003 4.91398 21.4053 4.93298 21.5643 4.96198ZM55.2753 7.03599C55.0933 7.00399 55.0843 7.16299 55.0483 7.28199C54.9953 7.45699 54.9993 7.65099 55.1963 7.70799C55.3953 7.76599 55.4923 7.59699 55.5423 7.42599C55.6043 7.20699 55.4333 7.13499 55.2753 7.03599ZM62.7453 16.476C62.8543 16.877 62.9303 17.157 63.0173 17.476C63.4263 16.784 63.4263 16.784 62.7453 16.476ZM7.42726 31.189C7.70526 31.174 7.97826 31.299 8.09626 30.946C8.11826 30.881 8.03326 30.709 7.99526 30.708C7.71626 30.702 7.51326 30.823 7.42726 31.189ZM10.9683 43.088C10.8003 42.845 10.7493 42.462 10.3173 42.653C10.2693 42.674 10.2093 42.776 10.2233 42.817C10.3523 43.197 10.6393 43.175 10.9683 43.088ZM18.6033 55.646C18.4833 55.72 18.3603 55.794 18.2383 55.871C18.1133 55.95 17.8943 55.953 17.9583 56.187C17.9703 56.233 18.0533 56.269 18.1103 56.293C18.3013 56.372 18.4043 56.295 18.4723 56.106C18.5243 55.964 18.7053 55.866 18.6033 55.646ZM35.6773 74.654C35.6063 74.551 35.6503 74.339 35.4883 74.33C35.2713 74.318 35.2423 74.527 35.2283 74.688C35.2163 74.834 35.2963 74.952 35.4663 74.931C35.6163 74.914 35.7073 74.828 35.6773 74.654ZM8.10126 35.496C8.08026 35.201 8.29226 34.991 8.11926 34.787C8.06126 34.718 7.92726 34.762 7.87026 34.849C7.71626 35.085 7.78726 35.276 8.10126 35.496ZM21.5333 11.216C21.3803 11.011 21.2323 10.819 20.9803 10.81C20.8823 10.807 20.8783 10.958 20.8933 11.057C20.9283 11.281 21.0373 11.44 21.2873 11.399C21.3713 11.386 21.4413 11.288 21.5333 11.216ZM28.0263 30.788C28.0423 30.611 27.9343 30.516 27.8033 30.483C27.6013 30.431 27.6073 30.6 27.6093 30.726C27.6123 30.887 27.5893 31.102 27.8283 31.094C27.9823 31.088 27.9983 30.907 28.0263 30.788ZM16.6583 57.977C16.1373 58.151 16.3393 58.437 16.4773 58.704C16.5043 58.755 16.6093 58.825 16.6163 58.819C16.7873 58.663 16.5323 58.463 16.6683 58.292C16.7313 58.212 16.7533 58.114 16.6583 57.977ZM36.0263 22.34C35.8733 22.574 35.6033 22.773 35.7933 23.138C36.1483 22.938 36.1033 22.644 36.0263 22.34ZM28.8393 21.829C28.8563 22.082 28.7133 22.36 28.9923 22.55C29.0333 22.578 29.1413 22.581 29.1593 22.556C29.3733 22.242 28.9733 22.109 28.9433 21.863C28.9423 21.85 28.8863 21.844 28.8393 21.829ZM17.3733 8.07398C17.2043 7.97098 17.0713 7.82499 16.9263 7.81399C16.6933 7.79499 16.6963 8.00499 16.7163 8.17799C16.7343 8.32999 16.8213 8.44499 16.9773 8.37599C17.1143 8.31499 17.2243 8.19098 17.3733 8.07398ZM53.3093 7.53199C53.5423 7.71499 53.6323 8.09499 54.0753 8.05299C53.9623 7.64099 53.6283 7.59699 53.3093 7.53199ZM17.9703 50.836C18.1693 50.506 18.0273 50.364 18.0123 50.222C17.9963 50.071 18.1553 49.846 17.8583 49.758C17.7973 50.081 17.8323 50.365 17.9703 50.836ZM9.34626 39.948C9.65926 40.135 9.89426 40.239 10.1433 40.03C10.1793 39.999 10.1923 39.866 10.1673 39.847C9.92026 39.668 9.67326 39.684 9.34626 39.948ZM16.3783 2.25498C15.9963 2.69398 15.9963 2.69398 16.6173 3.03898C16.3363 2.76098 16.4953 2.48398 16.3783 2.25498ZM14.3523 52.065C14.2663 51.984 14.4373 51.712 14.1543 51.735C14.0103 51.747 13.7923 51.81 13.7973 52.002C13.8013 52.158 13.8943 52.347 14.0683 52.397C14.3083 52.466 14.3253 52.27 14.3523 52.065ZM27.4943 15.997C27.4743 15.802 27.3973 15.618 27.2213 15.514C27.1403 15.466 27.0263 15.546 27.0013 15.644C26.9433 15.869 27.0473 16.026 27.2553 16.105C27.3503 16.141 27.4403 16.107 27.4943 15.997ZM24.2113 68.948C24.2863 68.979 24.3823 68.946 24.3663 68.88C24.3283 68.721 24.2753 68.548 24.1743 68.427C24.1123 68.354 24.0033 68.471 23.9803 68.56C23.9283 68.758 24.0553 68.865 24.2113 68.948ZM10.8173 48.659C11.0083 48.677 10.9653 48.499 11.0223 48.405C11.1393 48.213 11.0493 48.1 10.8633 48.053C10.7053 48.013 10.6263 48.11 10.6063 48.258C10.5833 48.438 10.6493 48.576 10.8173 48.659ZM16.8533 52.229C16.8983 52.191 16.9863 52.147 16.9823 52.115C16.9603 51.953 17.3343 51.837 17.0343 51.647C16.9593 51.599 16.9213 51.486 16.7983 51.574C16.6043 51.712 16.7513 51.854 16.7753 51.998C16.7893 52.081 16.7203 52.187 16.8533 52.229ZM61.9603 20.298C61.7383 20.019 61.5123 20.038 61.2733 20.249C61.2123 20.303 61.2073 20.357 61.2503 20.427C61.4643 20.77 61.6383 20.319 61.8423 20.395C61.8663 20.403 61.9203 20.332 61.9603 20.298ZM12.3803 47.475C12.6683 47.575 12.8883 47.536 12.9503 47.187C12.9593 47.136 12.9073 47.031 12.8663 47.021C12.5773 46.952 12.4953 47.194 12.3763 47.374C12.3643 47.394 12.3773 47.43 12.3803 47.475ZM27.7683 67.069C27.6233 67.097 27.5583 67.093 27.5153 67.121C27.3923 67.203 27.1643 67.186 27.1993 67.427C27.2083 67.491 27.2283 67.6 27.2613 67.608C27.4713 67.657 27.5133 67.448 27.6213 67.343C27.6663 67.3 27.6843 67.231 27.7683 67.069ZM53.0453 48.387C52.9943 48.757 53.0933 48.949 53.3433 49.043C53.3873 49.06 53.4973 49.012 53.5173 48.967C53.6653 48.635 53.2633 48.65 53.1823 48.457C53.1723 48.434 53.1243 48.426 53.0453 48.387ZM16.5103 50.664C16.5213 50.618 16.4363 50.575 16.3273 50.576C16.1593 50.577 15.9983 50.598 15.9193 50.789C15.8703 50.905 15.9003 50.956 16.0173 50.975C16.2233 51.007 16.4173 51.015 16.5103 50.664ZM15.0833 3.32098C14.8753 3.35198 14.8683 3.51399 14.7833 3.60499C14.6773 3.71699 14.6503 3.86298 14.7733 3.94798C15.0033 4.10598 15.0263 3.86798 15.0903 3.73898C15.1493 3.61898 15.1963 3.49298 15.0833 3.32098ZM14.5283 2.80299C14.5143 2.65399 14.4253 2.52798 14.3023 2.48698C14.0793 2.41298 13.9143 2.59898 13.8123 2.73798C13.7333 2.84598 13.9333 3.04398 14.0223 2.97698C14.1843 2.85398 14.4663 3.13899 14.5283 2.80299ZM18.7543 53.192C18.6793 53.095 18.6173 52.953 18.5093 52.896C18.4283 52.852 18.3173 52.951 18.3323 53.079C18.3483 53.221 18.4143 53.363 18.5483 53.401C18.6503 53.43 18.7213 53.315 18.7543 53.192ZM61.3043 30.625C61.1913 30.621 61.1123 30.665 61.1173 30.787C61.1223 30.937 61.2073 31.038 61.3593 31.025C61.4843 31.014 61.6383 30.958 61.6203 30.803C61.6003 30.644 61.4263 30.659 61.3043 30.625ZM26.9123 21.854C26.8103 21.821 26.7493 21.856 26.7563 21.941C26.7673 22.073 26.7723 22.234 26.8493 22.322C26.9183 22.401 27.0603 22.317 27.0443 22.196C27.0283 22.069 26.9523 21.951 26.9123 21.854ZM28.5873 20.226C28.6243 20.106 28.5603 19.911 28.4683 19.887C28.3503 19.856 28.2843 19.932 28.2593 20.03C28.2253 20.161 28.2323 20.299 28.3753 20.362C28.4893 20.413 28.5443 20.316 28.5873 20.226ZM29.6093 17.829C29.4343 17.839 29.4443 17.987 29.4273 18.106C29.4123 18.213 29.4643 18.303 29.5783 18.294C29.7303 18.282 29.7923 18.165 29.7953 18.024C29.7983 17.909 29.7193 17.855 29.6093 17.829ZM54.2583 6.57398C54.2443 6.40598 54.1303 6.35198 53.9813 6.34998C53.8533 6.34898 53.6903 6.32399 53.6733 6.50999C53.6563 6.69899 53.8163 6.71198 53.9513 6.72598C54.0793 6.73898 54.2243 6.76898 54.2583 6.57398ZM11.1353 4.13398C11.3973 4.37798 11.6093 4.49298 11.8613 4.15298C11.6293 3.94798 11.4103 4.01998 11.1353 4.13398ZM49.0843 55.108C49.0643 55.051 49.0513 54.949 49.0233 54.945C48.8723 54.924 48.7843 55.02 48.7563 55.156C48.7463 55.206 48.7843 55.309 48.8163 55.316C48.9773 55.352 49.0373 55.233 49.0843 55.108ZM19.6563 53.092C19.6543 52.969 19.5853 52.908 19.4693 52.917C19.3483 52.926 19.1853 52.878 19.1523 53.062C19.1303 53.187 19.2233 53.232 19.3313 53.221C19.4493 53.209 19.6043 53.275 19.6563 53.092ZM13.3483 43.4C13.2373 43.393 13.1483 43.445 13.1423 43.551C13.1313 43.716 13.2643 43.776 13.3973 43.797C13.5013 43.813 13.5943 43.751 13.6033 43.643C13.6173 43.472 13.4793 43.433 13.3483 43.4ZM12.9763 41.363C13.1073 41.349 13.2213 41.301 13.2583 41.154C13.2843 41.052 13.2563 40.944 13.1533 40.925C12.9873 40.895 12.8203 40.919 12.8123 41.147C12.8093 41.251 12.8623 41.331 12.9763 41.363ZM60.7883 24.041C60.7433 23.925 60.6283 23.863 60.5563 23.899C60.4473 23.953 60.3433 24.058 60.2873 24.166C60.2173 24.301 60.3413 24.34 60.4413 24.314C60.5923 24.275 60.7673 24.243 60.7883 24.041ZM60.6533 30.53C60.4893 30.571 60.2983 30.587 60.2933 30.817C60.2923 30.876 60.3263 30.966 60.3723 30.99C60.4873 31.05 60.8333 30.745 60.7923 30.62C60.7803 30.579 60.7023 30.559 60.6533 30.53ZM12.4653 3.98898C12.5623 3.98798 12.5783 3.94798 12.5223 3.86198C12.4863 3.80698 12.4653 3.73999 12.4253 3.68899C12.3743 3.62399 12.3373 3.64998 12.3383 3.75298C12.3373 3.85398 12.3453 3.95298 12.4653 3.98898ZM19.8813 6.27499C19.7363 6.21799 19.6963 6.32498 19.6653 6.41398C19.6153 6.55698 19.6693 6.71098 19.7983 6.74598C19.9063 6.77598 20.0733 6.73598 20.0903 6.55398C20.1053 6.39498 20.0183 6.30999 19.8813 6.27499ZM15.9913 6.68098C16.0313 6.52898 15.9703 6.39198 15.8403 6.35098C15.7203 6.31298 15.5653 6.34599 15.5543 6.53399C15.5453 6.69399 15.6473 6.76598 15.7813 6.81898C15.9263 6.87598 15.9443 6.76098 15.9913 6.68098ZM23.2553 68.312C23.1343 68.354 23.0343 68.431 23.0743 68.529C23.1383 68.684 23.3103 68.623 23.4393 68.64C23.5283 68.652 23.5843 68.588 23.5463 68.515C23.4843 68.396 23.3973 68.29 23.2553 68.312ZM19.9653 10.052C19.9513 10.162 19.9953 10.247 20.0923 10.289C20.2213 10.344 20.2863 10.255 20.2773 10.152C20.2703 10.069 20.2163 9.95798 20.1483 9.91798C20.0343 9.85098 19.9803 9.94598 19.9653 10.052ZM4.31526 13.884C4.51926 13.944 4.59126 13.992 4.64526 13.976C4.77526 13.939 5.07426 14.074 4.99526 13.825C4.93426 13.633 4.65026 13.76 4.31526 13.884ZM3.56426 14.874C3.47226 14.89 3.34726 14.902 3.37126 15.02C3.38726 15.096 3.48526 15.181 3.56526 15.21C3.67526 15.251 3.74926 15.168 3.74126 15.055C3.73426 14.958 3.70226 14.856 3.56426 14.874ZM15.4293 47.336C15.4783 47.374 15.5833 47.457 15.6883 47.539C15.7223 47.483 15.7803 47.429 15.7863 47.37C15.8033 47.198 15.6913 47.129 15.5383 47.116C15.4503 47.108 15.4103 47.158 15.4293 47.336ZM3.56726 17.163C3.55226 17 3.46226 16.916 3.30126 16.946C3.25526 16.954 3.18726 17.026 3.18626 17.071C3.18026 17.227 3.28426 17.336 3.42226 17.361C3.54326 17.384 3.55426 17.257 3.56726 17.163ZM5.84626 17.457C5.97126 17.466 6.03026 17.392 6.03726 17.283C6.04426 17.173 5.97626 17.103 5.87326 17.068C5.75926 17.029 5.67226 17.074 5.64126 17.179C5.59226 17.348 5.70326 17.419 5.84626 17.457ZM55.1863 45.334C55.2613 45.304 55.3643 45.288 55.4283 45.23C55.4993 45.166 55.5103 45.035 55.3933 45.019C55.3233 45.009 55.2323 45.11 55.1613 45.173C55.0983 45.229 55.1073 45.287 55.1863 45.334ZM12.7643 43.04C12.7053 43.013 12.6413 42.957 12.5893 42.966C12.4043 42.999 12.3013 43.128 12.3013 43.315C12.3013 43.414 12.3573 43.524 12.4713 43.426C12.5933 43.322 12.7483 43.229 12.7643 43.04ZM6.83526 38.574C6.84526 38.47 6.82326 38.364 6.72126 38.331C6.62126 38.299 6.52326 38.357 6.48826 38.457C6.44726 38.574 6.55226 38.616 6.63126 38.665C6.74626 38.737 6.79926 38.677 6.83526 38.574ZM28.1793 35.33C28.2253 35.259 28.2173 35.19 28.1403 35.158C27.9993 35.099 27.8893 35.155 27.8103 35.279C27.7513 35.371 27.7463 35.472 27.8613 35.503C28.0063 35.543 28.1133 35.461 28.1793 35.33ZM5.79426 23.311C5.77626 23.254 5.76526 23.153 5.73826 23.148C5.59326 23.122 5.50126 23.209 5.43626 23.334C5.40226 23.4 5.40926 23.467 5.48926 23.482C5.62926 23.509 5.73926 23.45 5.79426 23.311ZM5.80726 25.267C5.83026 25.163 5.81326 25.069 5.71326 25.027C5.66626 25.007 5.56526 25.011 5.54926 25.039C5.47226 25.172 5.54226 25.272 5.66726 25.323C5.70126 25.338 5.76326 25.286 5.80726 25.267ZM6.35526 34.769C6.36426 34.94 6.52526 34.916 6.63126 34.93C6.75826 34.947 6.89226 34.914 6.88426 34.734C6.87726 34.576 6.78026 34.501 6.63426 34.524C6.50726 34.545 6.38826 34.602 6.35526 34.769ZM28.5613 34.281C28.4263 34.303 28.2873 34.332 28.2993 34.508C28.3013 34.544 28.4023 34.608 28.4483 34.601C28.5843 34.578 28.6883 34.494 28.7313 34.357C28.7343 34.35 28.6213 34.308 28.5613 34.281ZM5.83826 26.576C5.80626 26.529 5.77826 26.444 5.74226 26.441C5.65226 26.433 5.56026 26.463 5.46926 26.477C5.50626 26.519 5.53626 26.577 5.58326 26.601C5.66726 26.646 5.76226 26.676 5.83826 26.576ZM7.90026 32.125C7.86926 32.115 7.76126 32.106 7.74126 32.227C7.71326 32.389 7.83226 32.458 7.97026 32.444C8.05326 32.435 8.18426 32.377 8.20026 32.316C8.25426 32.113 8.07026 32.172 7.90026 32.125ZM19.6613 58.224C19.7633 58.205 19.8573 58.156 19.8393 58.046C19.8263 57.966 19.7693 57.856 19.7043 57.829C19.5203 57.754 19.5013 57.907 19.5033 58.031C19.5053 58.123 19.5463 58.212 19.6613 58.224ZM5.02126 31.256C4.89226 31.388 4.93626 31.555 4.97426 31.704C5.00126 31.809 5.11926 31.833 5.20626 31.772C5.35326 31.669 5.25426 31.532 5.22026 31.415C5.19726 31.329 5.17426 31.209 5.02126 31.256ZM30.0883 27.366C30.0943 27.258 30.0703 27.159 29.9403 27.176C29.8883 27.183 29.8303 27.252 29.8023 27.307C29.7463 27.414 29.8053 27.505 29.9043 27.532C30.0223 27.564 30.0603 27.46 30.0883 27.366Z" fill="#F94E4E"/>
</svg>
